<svg xmlns="http://www.w3.org/2000/svg" xmlns:xlink="http://www.w3.org/1999/xlink" fill="#000000" height="330.3" preserveAspectRatio="xMidYMid meet" version="1" viewBox="-0.1 -0.3 429.7 330.3" width="429.7" zoomAndPan="magnify"><g id="change1_1"><path d="M429.3,137.3c0-2.2-0.1-4.4-0.2-6.5c-0.1-1.6-0.2-3.2-0.4-4.9c-0.1-0.9-0.1-1.8-0.2-2.7l-0.7-4.7 c-0.2-1.1-0.3-2.2-0.5-3.3c-0.5-2.4-1.1-4.9-1.6-7.3c-0.2-1.1-0.6-2.2-0.9-3.2l-1.3-4.5c-0.6-2.1-1.5-4.2-2.2-6.2 c-0.4-1.1-0.8-2.3-1.2-3.4s-0.9-2-1.4-3c-0.6-1.3-1.2-2.6-1.8-4c-0.4-0.8-0.8-1.5-1.2-2.3l-2.3-4.4c-0.3-0.6-0.6-1.1-0.9-1.7 c-0.8-1.3-1.6-2.7-2.4-4c-0.5-0.8-0.9-1.5-1.4-2.3l-4-5.9c-0.8-1.1-1.6-2.1-2.4-3.2s-1.5-1.9-2.2-2.8s-1.5-1.7-2.3-2.6 s-1.3-1.6-2-2.3l-2.9-2.9c-0.7-0.7-1.4-1.4-2.1-2.1l-3.4-2.9c-0.6-0.5-1.1-1-1.7-1.5c-1.8-1.4-3.5-2.8-5.3-4.1s-3.6-2.6-5.5-3.8 l-4.1-2.6c-0.6-0.4-1.1-0.8-1.7-1.1l-4-2.3c-0.9-0.5-1.7-1-2.6-1.5l-6.7-3.4c-0.9-0.5-1.9-0.8-2.9-1.3l-4-1.8 c-0.7-0.3-1.4-0.6-2.1-0.8l-4.4-1.7c-2-0.8-4-1.4-6.1-2.1c-1-0.3-2.1-0.7-3.1-1l-2.8-0.8c-2.1-0.6-4.2-1.2-6.3-1.7l-7.5-1.6 c-1.1-0.2-2.2-0.4-3.2-0.6l-4.7-0.8c-1.9-0.3-3.7-0.5-5.6-0.8L298,8.4c-0.5-0.1-1-0.1-1.6-0.2l-8.7-0.6c-2-0.1-4-0.2-6-0.2 s-4-0.2-6.1-0.2L266.8,7c-1.9,0-3.9,0.1-5.8,0.1s-4.1,0-6.2,0.2l-8.9,0.6c-1.8,0.1-3.5,0.3-5.3,0.5L233,9.2 c-0.9,0.1-1.9,0.3-2.8,0.4l-4.6,0.8c-1.8,0.3-3.6,0.5-5.4,0.9l-8.9,1.9c-1.5,0.3-3.1,0.7-4.6,1.1l-9.1,2.5c-1.5,0.4-2.9,0.9-4.4,1.3 l-9.1,3c-1.4,0.5-2.7,1-4.1,1.5l-9,3.5c-1.4,0.5-2.8,1.1-4.1,1.7l-8.6,4c-1.4,0.7-2.9,1.3-4.3,2l-5,2.6c-0.1-0.2-0.2-0.4-0.3-0.7 c-2.4-5.9-5.7-11.4-9.9-16.3c-4.2-5-9.2-9.2-14.8-12.5c-2.8-1.6-5.8-3-8.9-4.1c-2.8-1-5.7-1.7-8.7-2.2C99.8-0.2,93-0.3,86.2,0.5 c-6.5,0.7-13,2-19.3,3.9c-4.6,1.4-9.1,3.1-13.5,5.1L46,13c-1.4,0.6-2.7,1.4-4,2.2s-2.7,1.5-4,2.3c-2.7,1.6-5.3,3.3-7.8,5.2 c-2.3,1.7-4.6,3.5-6.8,5.3c-1.8,1.4-3.4,3-5.1,4.5c-1.3,1.2-2.6,2.4-3.9,3.7c-1.8,1.9-3.5,3.9-5.1,6c-1.4,2-2.8,4-4.1,6.1 c-1.1,1.8-2.1,3.6-3.2,5.4l0,0c-0.3,0.3-0.5,0.6-0.7,1C0.5,56.3,0,58.1,0,60c-0.1,1.5,0.1,3.1,0.5,4.5c0.2,0.8,0.7,1.6,1.2,2.3 l0.5,0.5c0.5,0.4,1.2,0.5,1.8,0.4c0.7-0.2,1.3-0.7,1.7-1.3c0.4-0.5,0.7-0.9,1-1.5C7,64.6,7.2,64.3,7.4,64c0.5-0.9,1.1-1.8,1.6-2.7 c0.8-1.4,1.6-2.7,2.5-4c0.5-0.8,1-1.5,1.6-2.3c0.9-1.3,2-2.6,3-3.9c1.6-1.8,3.3-3.5,5.2-5.2l4.1-3.7c1-0.8,2-1.6,3-2.4l3.1-2.4 c3.1-2.2,6.3-4.4,9.7-6.3c2.3-1.4,4.7-2.8,7.2-3.9l7.8-3.7c4.6-2,9.4-3.7,14.3-5c4.7-1.3,9.6-2.2,14.5-2.8c7.4-0.9,15-0.8,22.3,0.5 c2.3,0.5,4.6,1.1,6.9,2c2.3,0.9,4.5,1.9,6.6,3c3.4,2,6.6,4.3,9.6,6.9c2.5,2.4,4.7,4.9,6.8,7.6c1.2,1.7,2.4,3.5,3.4,5.3l-5.9,3.4 l-4.2,2.5c-0.6,0.3-1.2,0.6-1.7,1l-5.9,3.8l-4.2,2.7c-0.6,0.4-1.2,0.7-1.7,1.1l-11.3,8c-0.8,0.5-1.5,1.2-2.2,1.7l-3.6,2.9l-3.9,3.1 c-0.5,0.4-1.1,0.8-1.6,1.3l-5.4,4.8l-3.5,3.1c-0.3,0.3-0.7,0.6-1.1,1l-5.9,5.7c-1.2,1.2-2.4,2.3-3.6,3.6l-6.2,6.7 c-3.1,3.3-6,6.8-8.7,10.5c-4,5.3-7.5,11-10.3,17c-3,6.2-4.5,13-4.6,19.9c0,3.4,0.6,6.8,1.8,10.1c0.5,1.4,1.1,2.8,1.9,4.1 c0.7,1.2,1.6,2.4,2.6,3.4c1.2,1.3,2.5,2.4,4,3.3c1.3,0.8,2.6,1.5,4,2c2.6,1,5.4,1.5,8.2,1.6c6.2,0.1,12.3-1.1,18-3.6 c5.8-2.6,11.3-6,16.1-10.2c2-1.7,4.1-3.5,5.9-5.4l2.5-2.6c1.6-1.7,3.3-3.3,4.9-5.1l5.8-6.6c0.4-0.5,0.9-0.9,1.3-1.5l1.9-2.5l5.1-6.6 c0.4-0.4,0.6-0.9,1-1.4c0.8-1.2,1.6-2.5,2.5-3.7c0.9-1.4,1.9-2.8,2.8-4.1c0.5-0.8,1-1.5,1.5-2.3c3.6-5.7,6.7-11.6,9.5-17.7 c1.4-3.2,2.7-6.4,3.8-9.7c1.1-3.1,1.9-6.2,2.6-9.3c0.8-3.7,1.3-7.5,1.5-11.3c0.1-3.4,0-6.8-0.3-10.2c-0.2-1.9-0.4-3.8-0.8-5.7 c1.3-0.7,2.6-1.4,3.9-2l13.1-6l10.6-4.1c1.4-0.5,2.8-1.1,4.1-1.6l9-3c1.5-0.5,2.9-1,4.4-1.4l9-2.5c4.5-1.2,9-2.1,13.6-3.1 c1.7-0.4,3.5-0.6,5.2-0.9l7.2-1.2l6.9-0.8c1.8-0.2,3.5-0.4,5.3-0.5l8.9-0.6c1.9-0.1,3.9-0.1,5.8-0.1s4-0.1,6-0.1l8.9,0.1 c2,0,3.9,0.1,5.9,0.2s4.1,0.1,6.1,0.2l8.8,0.6c2.1,0.1,4.2,0.5,6.2,0.7c1.9,0.2,3.8,0.5,5.7,0.8l7.5,1.3l6.1,1.3 c0.7,0.1,1.4,0.3,2,0.4l2.8,0.8c1.9,0.5,3.8,1,5.6,1.6l7,2.3c1.9,0.6,3.7,1.4,5.5,2.1c0.8,0.3,1.6,0.6,2.4,0.9l2.5,1.1 c1.8,0.8,3.6,1.5,5.3,2.4l6,3l3.7,2.1c1,0.5,2,1.1,2.9,1.7l4.9,3.1c0.9,0.5,1.7,1.2,2.5,1.7l2.5,1.8c0.4,0.2,0.7,0.5,1.1,0.8 l3.8,2.9c2,1.6,3.9,3.3,5.8,5l3.7,3.6c1.1,1.1,2,2.3,3.1,3.4s1.8,2.1,2.7,3.2l2.8,3.7l3.5,5.2c1,1.5,1.9,3,2.8,4.6l1.5,2.6 c0.3,0.5,0.6,1.1,0.9,1.7l2.5,4.7c1.1,2.4,2.1,4.7,3.2,7.1l1.2,3.2c0.3,0.8,0.6,1.7,0.9,2.5c0.1,0.4,0.3,0.7,0.4,1.1l2.1,7.1 c0.5,2.2,1,4.5,1.5,6.7l1,6.7c0.1,0.9,0.1,1.8,0.2,2.7c0.1,1.3,0.3,2.6,0.3,3.8l0.1,6.8c0,2.2-0.1,4.3-0.2,6.5l-0.6,6.4l-0.5,3.2 c-0.1,0.8-0.3,1.7-0.4,2.5c0,0.3-0.1,0.6-0.2,0.9c-0.6,2.3-1.1,4.6-1.7,6.9c-0.8,2.5-1.5,4.9-2.3,7.4l-1.3,3.4 c-0.3,0.9-0.7,1.8-1,2.7c-0.1,0.3-0.2,0.7-0.4,1c-1.1,2.5-2.2,5.1-3.4,7.6c-1.4,2.8-2.8,5.7-4.4,8.4c-1,1.8-1.9,3.6-3,5.3 c-0.9,1.5-1.8,3.1-2.8,4.6c-1,1.5-2,3-3,4.5l-2.4,3.3c-0.5,0.7-1,1.3-1.5,1.9c-1.2,1.5-2.4,3.1-3.7,4.5l-4.5,5.3 c-2.6,2.8-5.1,5.7-7.7,8.4l-5.5,5.7c-1.4,1.4-2.8,2.8-4.2,4.2c-1.2,1.2-2.4,2.4-3.6,3.6l-6.1,5.6c-1.2,1.1-2.5,2.2-3.8,3.2l-4.9,4.1 l-3.7,2.8c-1.2,1-2.4,1.9-3.7,2.8c-2.7,2-5.4,4-8.2,6c-5.6,3.9-11.2,7.9-17,11.6c-7,4.5-14,9-21,13.5c1.8-2.9,3.6-5.7,5.4-8.6 c2.4-3.9,4.8-7.8,7.3-11.7l-0.5,0.7c1.8-2.7,3.5-5.4,5.2-8.1c2.1-3.1,4.1-6.2,6.2-9.2c3.6-5.3,7.4-10.5,10.8-16 c0.5-0.9,0.9-1.9,1-2.9c0.2-0.8,0.3-1.6,0.3-2.4c0.1-1.9-0.2-3.7-0.9-5.4c-0.5-1-1.3-2.3-2.6-2.4s-2.2,1.1-2.8,2.1l-0.5,0.7 c-1.9,3-4,5.9-6,8.8c-2.4,3.5-4.9,7.1-7.2,10.6c-2.8,4.1-5.5,8.3-8.1,12.5l-7.5,12c-2.3,3.7-4.6,7.4-6.9,11l-4,6 c-1.2,1.7-2.4,3.3-3.6,5s-2.7,3.5-4.1,5.2c-1.1,1.3-2.2,2.6-3.3,3.9c-1,1.1-2.1,2.2-3.1,3.2l-0.3,0.1c-0.3,0.2-0.6,0.4-0.9,0.6 c-0.4,0.3-0.7,0.8-1,1.2c-0.7,0.8-1.3,1.8-1.5,2.9c-0.6,1.9-0.7,3.9-0.5,5.9c0.1,1.6,0.7,3.2,1.7,4.4c0.5,0.6,1.1,0.9,1.9,0.9 c0.4,0,0.8-0.1,1.1-0.3h0.1c0.5-0.2,0.9-0.4,1.2-0.8l0.7-0.5l1.7-0.3l2.8-0.6l4.7-0.9c2.9-0.6,5.9-1.1,8.8-1.6 c2.4-0.4,4.8-0.7,7.2-1c3.4-0.4,6.7-0.8,10.1-1.1c5.2-0.5,10.3-1.1,15.5-1.6c2.7-0.2,5.3-0.5,8-0.7c1.4-0.1,2.8-0.2,4.2-0.3 c1.1-0.1,2.2-0.2,3.3-0.5c0.6-0.2,1.2-0.4,1.7-0.6c0.9-0.3,1.7-0.7,2.5-1.1c0.7-0.4,1.2-1.1,1.6-1.8c0.3-0.6,0.6-1.2,0.8-1.9 c0.6-1.9,0.8-3.9,0.5-5.9c-0.1-1.6-0.7-3.2-1.7-4.4c-0.4-0.5-1-0.9-1.7-0.9c-0.4,0-0.9,0.1-1.2,0.3l-0.7,0.3c-1.2,0.6-2.6,1-3.9,1.2 c-1.1,0.1-2.1,0.2-3.2,0.3c-5.2,0.4-10.4,0.9-15.5,1.4c-4.1,0.4-8.2,0.8-12.3,1.3c6-3.9,12.1-7.8,18.1-11.8 c3.8-2.5,7.5-5.2,11.3-7.8c2-1.4,4-2.9,5.9-4.3c1.5-1.1,3-2.2,4.4-3.3l4.1-3.1c0.7-0.5,1.4-1,2.1-1.6l6.1-5.1c0.6-0.5,1.3-1,1.9-1.6 l2.1-2l3.8-3.5c0.5-0.5,1.1-1,1.6-1.5c3.2-3.2,6.4-6.4,9.6-9.6c1.5-1.6,3.1-3.2,4.6-4.8l5.7-6.3c1.5-1.7,3-3.4,4.4-5.1 s2.8-3.3,4.1-5l2.5-3.1c0.7-0.9,1.3-1.8,2-2.7c1.3-1.8,2.6-3.7,3.8-5.6c0.8-1.2,1.5-2.4,2.2-3.5c0.5-0.8,0.9-1.5,1.4-2.3l2.3-4 c0.4-0.7,0.8-1.4,1.2-2.2l3.7-7.2c1.1-2.2,2-4.4,3-6.6c0.4-0.9,0.8-1.8,1.2-2.7s0.8-2,1.1-3c0.8-2.2,1.8-4.4,2.5-6.7l1.4-4.6 c0.4-1.1,0.7-2.3,1-3.5c0.6-2.5,1.2-5,1.8-7.4c0.2-0.8,0.3-1.5,0.4-2.3c0.3-1.6,0.5-3.1,0.8-4.6c0.2-1,0.4-2,0.5-3l0.4-4.5 c0.1-1.2,0.3-2.5,0.3-3.7s0.1-2.5,0.1-3.8C429.3,142.2,429.3,139.7,429.3,137.3z M146.2,67.3c-0.1,1.1-0.3,2.2-0.4,3.3 c-0.2,1.4-0.6,2.8-0.9,4.2c-0.5,1.9-1.1,3.8-1.8,5.6c-1.1,3.1-2.4,6.1-3.8,9.1c-2.2,4.5-4.7,8.9-7.3,13.2l-5.3,7.9 c-0.5,0.8-1,1.7-1.6,2.4l-2.7,3.5c-1.2,1.6-2.5,3.2-3.7,4.8c-0.5,0.6-0.9,1.2-1.4,1.7c-2,2.3-4,4.6-6,6.9l-5.4,5.6 c-3.1,3.2-6.4,6.1-9.8,8.8c-3.5,2.6-7.2,4.9-11.2,6.7c-2,0.9-4,1.6-6.1,2.1c-1.9,0.5-3.8,0.9-5.7,1.1c-2.9,0.3-5.9,0.2-8.7-0.3 c-1.9-0.4-3.8-1.1-5.5-2c-1.1-0.6-2.1-1.4-3-2.2c-0.5-0.5-1-1.1-1.4-1.6c-0.3-0.4-0.5-0.8-0.8-1.2s-0.3-0.6-0.4-0.9 s-0.2-0.6-0.3-0.9s-0.1-0.5-0.2-0.8c0-0.1,0-0.2,0-0.3s0-0.2,0-0.3c0-0.3,0-0.6,0-0.9s0.1-0.7,0.1-1.1s0.2-0.8,0.3-1.2 c0.2-0.8,0.5-1.6,0.7-2.4c0.5-1.4,1.1-2.8,1.7-4.1c1.3-2.7,2.8-5.3,4.4-7.8c3.2-4.8,6.7-9.5,10.6-13.8l4.3-4.6l2.9-3.1 c0.3-0.3,0.6-0.6,0.8-0.9l5.4-5.2c1.2-1.2,2.4-2.4,3.6-3.5l5.8-5.1l3.1-2.7c0.3-0.2,0.6-0.5,0.9-0.8l10.3-8.2l7.5-5.3 c1.7-1.2,3.4-2.4,5.1-3.6l8.1-5.2c1.2-0.8,2.4-1.6,3.7-2.3l8.3-4.8c1.3-0.7,2.5-1.5,3.8-2.2l1.2-0.6c0.1,0.7,0.3,1.3,0.4,2 c0.2,1.5,0.4,3.1,0.6,4.6c0.1,1.3,0.1,2.6,0.1,3.9C146.3,65.4,146.2,66.3,146.2,67.3L146.2,67.3z" fill="#ffffff"/></g></svg>