<svg xmlns="http://www.w3.org/2000/svg" xmlns:xlink="http://www.w3.org/1999/xlink" clip-rule="evenodd" fill="#ffffff" fill-rule="evenodd" height="238.9" preserveAspectRatio="xMidYMid meet" stroke-linejoin="round" stroke-miterlimit="2" version="1" viewBox="-42.8 -40.0 300.5 238.9" width="300.5" zoomAndPan="magnify"><g><g><g id="change1_1"><path d="M373.31,216.74C385.42,216.435 398.963,218.159 408.701,222.596C419.243,227.4 424.804,233.38 427.153,239.219C429.619,245.347 428.641,251.424 425.879,256.258C414.997,275.301 389.797,282.34 366.33,277.263C351.85,274.13 340.189,270.563 330.85,266.83C334.67,272.056 339.487,276.993 345.473,281.502C369.259,299.416 396.82,304.204 421.318,303.542C458.267,302.543 488.312,289.146 488.312,289.146C489.362,288.677 490.595,289.149 491.063,290.199C491.532,291.249 491.06,292.482 490.01,292.951C490.01,292.951 459.256,306.685 421.431,307.707C396.08,308.392 367.58,303.368 342.967,284.83C334.56,278.498 328.323,271.372 323.842,263.802C318.415,261.265 313.964,258.685 310.343,256.144C305.531,252.767 302.145,249.429 299.847,246.322C299.555,246.296 299.257,246.261 298.953,246.215C292.124,245.197 287.618,239.719 284.046,232.09C279.243,221.832 276.002,207.594 268.973,197.519C257.921,181.679 241.515,178.993 231.808,184.27C230.798,184.819 229.532,184.444 228.983,183.434C228.434,182.424 228.808,181.158 229.818,180.609C240.884,174.594 259.791,177.076 272.39,195.135C279.551,205.399 282.926,219.872 287.819,230.323C290.224,235.459 292.928,239.622 296.949,241.352C294.583,235.798 295.635,231.341 297.715,228.954C298.818,227.688 300.233,226.927 301.742,226.727C307.921,225.908 311.416,231.327 311.052,236.852C310.841,240.051 309.317,243.184 306.441,244.943C305.921,245.262 305.354,245.537 304.739,245.759C306.708,247.998 309.332,250.344 312.737,252.733C314.995,254.318 317.588,255.915 320.553,257.505C314.193,243.574 313.085,228.527 314.851,214.367C317.853,190.298 329.215,168.846 336.936,159.996C348.808,146.388 359.799,138.991 368.892,136.373C375.383,134.504 380.991,135.014 385.433,137.347C389.913,139.699 393.26,143.926 395.089,149.685C397.66,157.778 397.214,169.031 392.657,182.12C388.262,194.745 380.892,207.143 373.31,216.74ZM326.83,260.598C318.636,246.098 317.106,229.951 318.986,214.883C321.863,191.812 332.675,171.218 340.076,162.736C351.246,149.932 361.489,142.84 370.045,140.377C375.32,138.858 379.885,139.14 383.496,141.036C387.071,142.913 389.658,146.351 391.118,150.947C393.482,158.386 392.911,168.718 388.722,180.75C384.027,194.236 375.843,207.507 367.794,217.025C362.354,217.456 357.415,218.316 353.526,219.53C349.719,220.718 346.865,222.292 345.304,224.04C343.903,225.608 343.375,227.349 343.739,229.196C344.256,231.813 345.456,233.416 346.978,234.268C349.072,235.44 352.124,235.21 355.7,233.301C359.737,231.146 364.693,226.8 369.747,221.027C382.07,220.239 396.742,221.726 406.973,226.388C416.207,230.595 421.23,235.66 423.288,240.775C425.229,245.6 424.436,250.384 422.261,254.191C412.225,271.754 388.854,277.873 367.212,273.19C349.922,269.45 336.754,265.104 326.83,260.598ZM363.63,221.63C360.065,225.294 356.657,228.067 353.738,229.625C352.593,230.236 351.544,230.647 350.608,230.792C349.994,230.887 349.452,230.878 349.013,230.632C348.371,230.273 348.045,229.493 347.827,228.389C347.668,227.583 348.195,226.927 348.976,226.276C350.278,225.191 352.283,224.283 354.768,223.507C357.306,222.715 360.317,222.081 363.63,221.63ZM302.042,242.143C301.592,241.408 301.214,240.69 300.901,239.991C299.444,236.738 299.458,234.036 300.425,232.309C300.873,231.509 301.525,230.959 302.29,230.858C304.839,230.52 306.332,232.424 306.768,234.612C307.211,236.831 306.674,239.434 304.866,240.957C304.13,241.577 303.19,241.992 302.042,242.143Z" transform="scale(-1 1) rotate(15.779 638.626 -1536.213)"/></g></g></g></svg>