<svg width="47" height="40" viewBox="0 0 47 40" fill="none" xmlns="http://www.w3.org/2000/svg">
<g clip-path="url(#clip0_21_20)">
<path fill-rule="evenodd" clip-rule="evenodd" d="M28.9841 12.587C28.9841 12.171 28.8181 11.771 28.5241 11.476C28.2291 11.182 27.8291 11.016 27.4131 11.016C22.9491 11.016 6.05111 11.016 1.58711 11.016C1.17111 11.016 0.771113 11.182 0.476113 11.476C0.182113 11.771 0.0161133 12.171 0.0161133 12.587C0.0161133 16.337 0.0161133 28.5 0.0161133 28.5C0.0161133 28.767 0.233113 28.984 0.500113 28.984H28.5001C28.7671 28.984 28.9841 28.767 28.9841 28.5V12.587ZM28.0161 28.016V12.587C28.0161 12.427 27.9531 12.274 27.8401 12.161C27.7261 12.047 27.5731 11.984 27.4131 11.984C22.9491 11.984 6.05111 11.984 1.58711 11.984C1.42711 11.984 1.27411 12.047 1.16011 12.161C1.04711 12.274 0.984113 12.427 0.984113 12.587V28.016H28.0161Z" fill="white" fill-opacity="0.85098"/>
<path fill-rule="evenodd" clip-rule="evenodd" d="M28.9841 28.5C28.9841 28.233 28.7671 28.016 28.5001 28.016H0.500113C0.233113 28.016 0.0161133 28.233 0.0161133 28.5V30.02C0.0161133 30.806 0.328113 31.56 0.884113 32.116C1.44011 32.672 2.19411 32.984 2.98011 32.984C8.29011 32.984 20.7101 32.984 26.0201 32.984C26.8061 32.984 27.5601 32.672 28.1161 32.116C28.6721 31.56 28.9841 30.806 28.9841 30.02C28.9841 29.203 28.9841 28.5 28.9841 28.5ZM28.0161 28.984H0.984113V30.02C0.984113 30.55 1.19411 31.057 1.56811 31.432C1.94311 31.806 2.45011 32.016 2.98011 32.016C8.29011 32.016 20.7101 32.016 26.0201 32.016C26.5501 32.016 27.0571 31.806 27.4321 31.432C27.8061 31.057 28.0161 30.55 28.0161 30.02V28.984Z" fill="white" fill-opacity="0.85098"/>
<path fill-rule="evenodd" clip-rule="evenodd" d="M17.9841 32.5C17.9841 32.233 17.7671 32.016 17.5001 32.016H11.5001C11.2331 32.016 11.0161 32.233 11.0161 32.5V36.5C11.0161 36.767 11.2331 36.984 11.5001 36.984H17.5001C17.7671 36.984 17.9841 36.767 17.9841 36.5V32.5ZM11.9841 32.984V36.016H17.0161V32.984H11.9841Z" fill="white" fill-opacity="0.85098"/>
<path fill-rule="evenodd" clip-rule="evenodd" d="M26.9841 39.498C26.9841 38.575 26.6171 37.689 25.9641 37.036C25.3111 36.383 24.4251 36.016 23.5021 36.016C18.8911 36.016 10.1091 36.016 5.49811 36.016C4.57511 36.016 3.68911 36.383 3.03611 37.036C2.38311 37.689 2.01611 38.575 2.01611 39.498V39.5C2.01611 39.767 2.23311 39.984 2.50011 39.984H26.5001C26.7671 39.984 26.9841 39.767 26.9841 39.5V39.498ZM25.9701 39.016C25.8741 38.529 25.6361 38.076 25.2801 37.72C24.8081 37.249 24.1691 36.984 23.5021 36.984C18.8911 36.984 10.1091 36.984 5.49811 36.984C4.83111 36.984 4.19211 37.249 3.72011 37.72C3.36411 38.076 3.12611 38.529 3.03011 39.016H25.9701Z" fill="white" fill-opacity="0.85098"/>
<path fill-rule="evenodd" clip-rule="evenodd" d="M13.5001 30.984H15.5001C15.7671 30.984 15.9841 30.767 15.9841 30.5C15.9841 30.233 15.7671 30.016 15.5001 30.016H13.5001C13.2331 30.016 13.0161 30.233 13.0161 30.5C13.0161 30.767 13.2331 30.984 13.5001 30.984Z" fill="white" fill-opacity="0.85098"/>
<path fill-rule="evenodd" clip-rule="evenodd" d="M21.9841 26.92C21.9841 25.338 21.3561 23.822 20.2371 22.704C19.1191 21.586 17.6031 20.957 16.0221 20.957C15.0221 20.957 13.9781 20.957 12.9781 20.957C11.3971 20.957 9.88111 21.586 8.76311 22.704C7.64411 23.822 7.01611 25.338 7.01611 26.92C7.01611 27.838 7.01611 28.5 7.01611 28.5C7.01611 28.767 7.23311 28.984 7.50011 28.984H21.5001C21.7671 28.984 21.9841 28.767 21.9841 28.5V26.92ZM21.0161 28.016V26.92C21.0161 25.595 20.4901 24.325 19.5531 23.388C18.6171 22.451 17.3461 21.925 16.0221 21.925C15.0221 21.925 13.9781 21.925 12.9781 21.925C11.6541 21.925 10.3831 22.451 9.44711 23.388C8.51011 24.325 7.98411 25.595 7.98411 26.92V28.016H21.0161Z" fill="white" fill-opacity="0.85098"/>
<path fill-rule="evenodd" clip-rule="evenodd" d="M14.5002 13.016C12.5292 13.016 10.9282 14.617 10.9282 16.588C10.9282 18.56 12.5292 20.16 14.5002 20.16C16.4712 20.16 18.0722 18.56 18.0722 16.588C18.0722 14.617 16.4712 13.016 14.5002 13.016ZM14.5002 13.984C15.9372 13.984 17.1042 15.151 17.1042 16.588C17.1042 18.026 15.9372 19.193 14.5002 19.193C13.0632 19.193 11.8962 18.026 11.8962 16.588C11.8962 15.151 13.0632 13.984 14.5002 13.984Z" fill="white" fill-opacity="0.85098"/>
</g>
<g clip-path="url(#clip1_21_20)">
<path d="M32.1125 2.47795C32.1521 2.39811 32.1855 2.3097 32.2363 2.23585C32.2954 2.15001 32.3635 2.06907 32.4267 1.98613C32.5368 1.84177 32.6705 1.7266 32.8047 1.60227C32.9356 1.4809 33.1089 1.39874 33.2667 1.31165C33.3415 1.27038 33.4339 1.25269 33.5159 1.22717C33.5998 1.20108 33.692 1.15722 33.7811 1.14823C33.8822 1.13802 33.9933 1.15128 34.0954 1.15276C34.1724 1.15386 34.2511 1.15015 34.3279 1.16086C34.3984 1.1707 34.4693 1.17802 34.5398 1.18701C34.5403 1.17035 34.5413 1.1537 34.5417 1.13704C34.5447 1.03135 34.5476 0.925653 34.5506 0.81996C34.5542 0.68949 34.7728 0.698852 34.7874 0.82708C34.8034 0.967818 34.8205 1.10742 34.8317 1.24735C34.8567 1.25566 34.8815 1.26487 34.9059 1.27554C35.0174 1.32424 35.1311 1.36983 35.2411 1.42192C35.3163 1.45754 35.3797 1.51979 35.4443 1.5707C35.5189 1.62948 35.5986 1.68519 35.6695 1.74817C35.7476 1.81759 35.8167 1.89944 35.8891 1.97417C35.9139 1.99967 35.937 2.02572 35.9604 2.05171C35.9669 2.00706 35.9734 1.9624 35.9799 1.91774C36.0016 1.76916 36.219 1.81014 36.2171 1.95461C36.2157 2.06306 36.2143 2.17152 36.2129 2.27997C36.2126 2.30671 36.2128 2.33365 36.2126 2.36056C36.23 2.38334 36.2473 2.40594 36.2649 2.42903C36.4843 2.71786 36.6388 3.04914 36.7907 3.37184C36.833 3.46172 36.8742 3.55207 36.916 3.64218C36.9492 3.71376 36.9872 3.78336 37.0064 3.85915C37.0345 3.97044 37.0611 4.08207 37.0884 4.1935C37.096 4.22459 37.105 4.25584 37.1115 4.28719C37.1082 4.27438 37.1034 4.26159 37.1108 4.28564C37.1113 4.28709 37.1117 4.28854 37.1121 4.28998C37.1124 4.29148 37.1129 4.29297 37.1132 4.29447C37.1129 4.29326 37.1126 4.29191 37.1123 4.29058C37.1189 4.31202 37.1252 4.33352 37.1317 4.355C37.2455 4.73324 37.3376 5.1148 37.4419 5.4951C37.5396 5.85157 37.5481 6.2232 37.5897 6.58667C37.6004 6.68054 37.6152 6.77431 37.6305 6.868C37.723 6.79565 37.8159 6.72323 37.9103 6.65285C37.9164 6.60316 37.9211 6.55366 37.9282 6.50372C37.9343 6.46045 37.9404 6.41718 37.9465 6.3739C37.9649 6.24389 38.1588 6.25274 38.1834 6.38101C38.188 6.40486 38.1927 6.42868 38.1974 6.45251C38.2492 6.41901 38.3016 6.38626 38.3551 6.35547C38.5299 6.25506 38.6966 6.15418 38.8618 6.04038C38.8682 6.03597 38.8745 6.03136 38.8809 6.02687C38.8961 5.98057 38.9118 5.93454 38.9251 5.88916C38.9383 5.8444 38.9514 5.79964 38.9646 5.75489C38.9982 5.64067 39.176 5.68745 39.1934 5.79145C39.1958 5.8059 39.1983 5.82037 39.2008 5.83482C39.2639 5.80273 39.3271 5.77061 39.3902 5.73851C39.4201 5.72334 39.45 5.7083 39.4798 5.69298C39.4819 5.69164 39.485 5.68973 39.4905 5.68635C39.5113 5.67357 39.5327 5.66163 39.5538 5.64929C39.6575 5.58858 39.7607 5.52698 39.865 5.46713C39.9617 5.41161 40.0727 5.37865 40.1826 5.34495C40.1903 5.30292 40.1979 5.26087 40.2056 5.21893C40.2156 5.16447 40.2257 5.11001 40.2357 5.05555C40.2582 4.93351 40.4576 4.92708 40.4725 5.06267C40.4785 5.11686 40.4844 5.17101 40.4903 5.22512C40.6081 5.16542 40.7233 5.09749 40.8506 5.06243C41.0382 5.01076 41.2251 4.95769 41.4146 4.91175C41.5236 4.88531 41.6324 4.85792 41.7417 4.83242C41.8359 4.81043 41.9364 4.80452 42.0328 4.7923C42.0341 4.79214 42.0353 4.79205 42.0366 4.79189C42.0429 4.75996 42.0492 4.72804 42.0555 4.6961C42.0789 4.57744 42.2853 4.56539 42.2924 4.70323C42.2935 4.72473 42.2945 4.74623 42.2955 4.76773C42.4092 4.76006 42.5231 4.75539 42.6395 4.75174C42.8402 4.74546 43.0356 4.79831 43.2333 4.84001C43.3154 4.85731 43.3944 4.8885 43.4739 4.91541C43.569 4.94762 43.6722 4.97262 43.764 5.01376C43.8073 5.03319 43.8496 5.05702 43.8915 5.08186C43.9421 5.0807 43.998 5.10931 44.0223 5.16044C44.0313 5.1658 44.0404 5.17144 44.0495 5.1766C44.1202 5.21694 44.1929 5.25391 44.257 5.30381C44.3598 5.38386 44.4626 5.46391 44.5655 5.54396C44.6271 5.59195 44.6704 5.65046 44.7191 5.71054C44.7894 5.79739 44.8676 5.88221 44.9319 5.97323C44.9838 6.04672 45.0249 6.12964 45.0705 6.20672C45.1142 6.28042 45.1698 6.35584 45.2018 6.43464C45.2469 6.54549 45.278 6.66341 45.3156 6.77652C45.3394 6.84795 45.3581 6.90904 45.3633 6.98305C45.372 7.10695 45.3815 7.23086 45.3893 7.35478C45.3943 7.43292 45.3784 7.50695 45.3667 7.58369C45.3514 7.6849 45.3415 7.78874 45.3205 7.88877C45.3012 7.98013 45.2498 8.06899 45.2141 8.15442C45.1838 8.22678 45.1573 8.30213 45.1214 8.37187C45.0385 8.53281 44.9434 8.6883 44.8546 8.84626C44.8544 8.84673 44.8541 8.8472 44.8539 8.84767C44.852 8.96668 44.8514 9.08576 44.8509 9.20512C44.8504 9.31885 44.668 9.3273 44.6238 9.23816C44.597 9.2712 44.5678 9.3025 44.5387 9.33503C44.4057 9.48355 44.2716 9.63017 44.1347 9.77525C43.8749 10.0505 43.6064 10.3194 43.3405 10.5893C43.2183 10.7134 43.0619 10.8125 42.9237 10.9198C42.9202 10.9226 42.9167 10.9254 42.9132 10.9282C42.9129 10.9334 42.9126 10.9386 42.9123 10.9438C42.9084 11.0124 42.8408 11.0426 42.7788 11.0358C42.6936 11.1049 42.6076 11.1737 42.5158 11.2327C42.1897 11.4423 41.8637 11.6525 41.5327 11.8552C41.3525 11.9655 41.17 12.0631 40.981 12.1599C40.9478 12.1769 40.9146 12.1938 40.8814 12.2108C40.8796 12.212 40.8772 12.2135 40.8735 12.2157C40.8548 12.2272 40.8354 12.2376 40.8164 12.2486C40.7098 12.3098 40.6038 12.3721 40.4966 12.4324C40.4225 12.474 40.3409 12.5038 40.2624 12.5372C40.2028 12.5626 40.1432 12.588 40.0836 12.6134C40.0644 12.6215 40.0454 12.6311 40.0256 12.6381C40.0233 12.6389 40.0222 12.6392 40.0207 12.6397C40.002 12.6499 39.983 12.6597 39.9643 12.6698C39.9587 12.7557 39.9483 12.8411 39.9397 12.927C39.9339 12.9846 39.9282 13.0422 39.9224 13.0999C39.9097 13.2265 39.6958 13.2245 39.6856 13.0928C39.6786 13.0039 39.6726 12.9149 39.6664 12.826C39.6203 12.8496 39.5742 12.8735 39.5279 12.8967C39.3443 12.9884 39.1663 13.0774 38.9734 13.1503C38.7807 13.2231 38.5872 13.2905 38.3914 13.3562C38.2062 13.4182 38.0328 13.5025 37.8547 13.58C37.6995 13.6476 37.5316 13.6958 37.3706 13.7504C37.3178 13.7683 37.265 13.7869 37.212 13.8055C37.2134 13.8551 37.2147 13.9047 37.216 13.9543C37.2199 14.0987 36.9913 14.127 36.9795 13.9769C36.9771 13.9458 36.9752 13.9148 36.9729 13.8837C36.9253 13.8975 36.8773 13.9099 36.8287 13.92C36.7054 13.9457 36.582 13.9714 36.4586 13.9971C36.4517 13.9985 36.4449 14 36.438 14.0014C36.4356 14.0023 36.4325 14.0036 36.4262 14.0059C36.374 14.0257 36.3197 14.0415 36.2666 14.0592C35.9004 14.1813 35.5239 14.271 35.148 14.3654C35.146 14.3936 35.145 14.4218 35.1415 14.4501C35.1289 14.5554 35.1162 14.6606 35.1035 14.7659C35.0885 14.8901 34.8684 14.8917 34.8667 14.7587C34.8653 14.651 34.8641 14.5432 34.8625 14.4354C34.7722 14.457 34.6819 14.4783 34.5916 14.4999C34.5293 14.5149 34.463 14.4947 34.4353 14.4322C34.4279 14.4155 34.4259 14.3961 34.4279 14.3769C34.3633 14.2359 34.301 14.0937 34.2314 13.9548C34.1482 13.7885 34.0595 13.6249 33.9911 13.4529C33.8493 13.0964 33.6935 12.7483 33.5217 12.4032C33.4363 12.2319 33.3878 12.0545 33.3309 11.8733C33.2794 11.7094 33.1849 11.5586 33.1236 11.3977C33.1101 11.3622 33.0995 11.3254 33.0898 11.2882C33.0736 11.272 33.0622 11.2494 33.0592 11.2193C33.0565 11.1906 33.0532 11.1617 33.0502 11.133C33.0357 11.0796 33.0211 11.0262 33.0066 10.9728C33.0029 10.959 32.999 10.9451 32.9953 10.9312C32.9947 10.9303 32.9944 10.9301 32.9936 10.9288C32.937 10.8337 32.9069 10.7127 32.8661 10.6109C32.8416 10.55 32.8192 10.4915 32.8009 10.4289C32.7475 10.2472 32.6934 10.0658 32.6447 9.88312C32.6187 9.78598 32.5935 9.68868 32.5669 9.59168C32.566 9.58961 32.5655 9.58852 32.5638 9.5844C32.5562 9.56622 32.5502 9.54735 32.5434 9.52892C32.5203 9.4664 32.4973 9.40389 32.4743 9.34138C32.4177 9.18792 32.3785 9.03632 32.3417 8.88008C32.3409 8.88667 32.3401 8.89326 32.3394 8.89986C32.3248 9.02469 32.108 9.02569 32.1025 8.89273C32.0894 8.57421 32.0663 8.25206 32.0729 7.93403C32.0733 7.91235 32.0743 7.89069 32.0749 7.869C32.0663 7.83671 32.0574 7.80447 32.0488 7.77218C32.0069 7.6144 31.9515 7.45367 31.9263 7.2933C31.8981 7.11371 31.8827 6.93323 31.8465 6.75458C31.8083 6.5664 31.771 6.37903 31.7398 6.18999C31.6783 5.81787 31.6698 5.44471 31.6517 5.07032C31.643 4.88848 31.6763 4.70758 31.6923 4.52753C31.7062 4.3699 31.713 4.2114 31.7274 4.05383C31.7427 3.88682 31.7484 3.71005 31.7893 3.54787C31.8331 3.37443 31.8766 3.20089 31.9217 3.02783C31.9491 2.92287 31.976 2.81776 32.0038 2.71295C32.0258 2.63043 32.0747 2.55405 32.1125 2.47795ZM33.4022 1.5053C33.4004 1.50636 33.3986 1.50732 33.3969 1.50837C33.4079 1.50537 33.4278 1.48963 33.4022 1.5053ZM35.7111 2.11788C35.6659 2.07128 35.6207 2.02467 35.5755 1.97807C35.5589 1.96091 35.5422 1.94379 35.5256 1.92659C35.5235 1.92436 35.5225 1.92394 35.5206 1.92223C35.5216 1.92263 35.5219 1.92303 35.523 1.92342C35.5221 1.92311 35.5211 1.92229 35.5203 1.92192C35.5064 1.90917 35.5013 1.90937 35.5066 1.91437C35.483 1.89914 35.458 1.87221 35.4396 1.85769C35.3881 1.81715 35.3367 1.77662 35.2853 1.73609C35.2438 1.70337 35.2 1.67213 35.1602 1.6375C35.1582 1.63573 35.1574 1.63559 35.1557 1.63431C35.1591 1.63551 35.162 1.63685 35.1669 1.63761C35.1626 1.63694 35.1579 1.63456 35.1533 1.63254C35.1442 1.62616 35.1414 1.6262 35.1452 1.62937C35.1386 1.62604 35.1322 1.62244 35.1266 1.62002C35.0324 1.57887 34.9382 1.53772 34.8439 1.49656C34.8443 1.57594 34.8447 1.65531 34.8452 1.73469C34.8453 1.75738 34.8455 1.78007 34.8455 1.80275C34.8456 1.80474 34.8458 1.80618 34.846 1.80951C34.8542 1.94949 34.8576 2.08968 34.8635 2.22968C34.8719 2.4326 34.9014 2.63529 34.9035 2.83818C34.9062 3.09085 34.9066 3.34252 34.9021 3.59487C34.9016 3.62554 34.901 3.65622 34.9005 3.6869C34.9004 3.69218 34.9003 3.71309 34.9001 3.72514C34.9005 3.73493 34.9009 3.74725 34.9011 3.75085C34.9026 3.78494 34.9041 3.81902 34.9056 3.85311C34.9106 3.96698 34.9159 4.08086 34.9206 4.19473C34.9307 4.43465 34.9404 4.67328 34.9379 4.91283C34.9372 4.98692 34.9364 5.06101 34.9356 5.1351C34.9355 5.14947 34.937 5.21097 34.9348 5.14785C34.9354 5.16492 34.9356 5.18201 34.936 5.19909C34.9391 5.33783 34.9423 5.47657 34.9454 5.61531C34.9502 5.82461 34.957 6.034 34.9567 6.24315C34.9563 6.49751 34.9556 6.75188 34.9545 7.00622C34.9544 7.02963 34.9546 7.05307 34.9542 7.07647C34.9543 7.0772 34.9543 7.07727 34.9544 7.07813C34.9584 7.14241 34.9594 7.20688 34.9619 7.27117C34.9662 7.38134 34.9723 7.49164 34.973 7.60176C34.9738 7.74261 34.9746 7.88347 34.9752 8.02431C34.9752 8.02499 34.9753 8.02562 34.9753 8.02629C34.9753 8.02613 34.9753 8.02605 34.9752 8.02587C34.9753 8.02626 34.9753 8.02666 34.9753 8.02706C34.9755 8.03288 34.9759 8.03816 34.9764 8.0423C34.9776 8.05692 34.9785 8.07166 34.9795 8.08608C34.9853 8.16661 34.991 8.24714 34.9968 8.32766C35.0124 8.54567 35.0229 8.764 35.0282 8.98207C35.0315 9.11572 35.0286 9.24946 35.0286 9.38301C35.0286 9.41079 35.0288 9.43858 35.0287 9.46636C35.0287 9.46702 35.0287 9.46725 35.0287 9.46788C35.0368 9.52542 35.0341 9.58611 35.0368 9.64385C35.0486 9.89996 35.0459 10.1508 35.039 10.4065C35.0363 10.5055 35.0345 10.6046 35.0324 10.7037C35.031 10.7716 35.0307 10.8397 35.0281 10.9075C35.0314 10.9307 35.0313 10.9549 35.0329 10.9782C35.0356 11.0188 35.0368 11.0589 35.0392 11.0993C35.0524 10.9148 35.0577 10.7301 35.0636 10.5448C35.0663 10.4599 35.0687 10.3749 35.0712 10.29C35.0732 10.2235 35.0751 10.1569 35.0771 10.0904C35.0773 10.0836 35.0771 10.0765 35.0771 10.0695C35.0774 10.0679 35.0776 10.0647 35.0777 10.0597C35.0778 10.0563 35.0778 10.0529 35.0783 10.0497C35.0779 10.052 35.0779 10.0529 35.0777 10.0549C35.0777 10.053 35.0778 10.052 35.0777 10.0497C35.0699 9.84181 35.0562 9.63626 35.0784 9.43055C35.1019 9.21351 35.116 9.00221 35.1222 8.78336C35.1278 8.58566 35.1218 8.38333 35.1415 8.18732C35.1403 8.16622 35.1399 8.14504 35.1391 8.12396C35.1364 8.05433 35.1338 7.9847 35.1312 7.91507C35.128 7.82979 35.123 7.74459 35.1256 7.65951C35.1322 7.44604 35.139 7.23531 35.1598 7.02338C35.1662 6.95799 35.1726 6.89261 35.179 6.82723C35.1801 6.8162 35.1804 6.80321 35.1819 6.79107C35.1818 6.80103 35.1847 6.80478 35.1837 6.77949C35.1837 6.77933 35.1837 6.77915 35.1837 6.77899C35.1838 6.77856 35.1838 6.77799 35.1839 6.77756C35.1838 6.77788 35.1838 6.77821 35.1837 6.77853C35.1787 6.65014 35.1751 6.52176 35.1708 6.39339C35.1646 6.20682 35.1936 6.02247 35.2007 5.8367C35.2079 5.64522 35.2039 5.45257 35.2068 5.26075C35.2082 5.17385 35.2109 5.08848 35.2147 5.0034C35.2142 4.99146 35.2133 4.9795 35.2129 4.96757C35.2075 4.79606 35.2128 4.62201 35.22 4.45111C35.2244 4.34424 35.2324 4.23755 35.2386 4.13082C35.2411 4.08785 35.2392 4.04187 35.2463 3.9995C35.2464 3.99888 35.2464 3.99885 35.2465 3.9983C35.2458 3.98405 35.2455 3.9697 35.245 3.95556C35.2381 3.76959 35.2265 3.58382 35.2338 3.39839C35.2412 3.20943 35.2489 3.02073 35.2599 2.83208C35.2652 2.7421 35.2704 2.65211 35.2757 2.56214C35.2844 2.41324 35.5155 2.45418 35.5129 2.59901C35.5109 2.70608 35.509 2.81316 35.5071 2.92024C35.5063 2.96443 35.5084 3.01017 35.5048 3.05429C35.5049 3.05505 35.5049 3.05524 35.505 3.05608C35.5069 3.07905 35.5076 3.10211 35.5089 3.12509C35.5216 3.34579 35.5307 3.56111 35.5249 3.78118C35.5192 3.99475 35.5103 4.20792 35.5012 4.42124C35.4938 4.59386 35.4602 4.76374 35.4503 4.93599C35.4502 4.94167 35.4502 4.94732 35.45 4.95298C35.4684 5.05781 35.462 5.17154 35.4679 5.27707C35.4784 5.46484 35.4726 5.65092 35.4692 5.83838C35.4689 5.85896 35.4687 5.87956 35.4681 5.90012C35.4678 5.89868 35.4677 5.89775 35.4674 5.89615C35.4679 5.89878 35.4677 5.90169 35.4682 5.90435C35.4683 5.90949 35.4688 5.91418 35.4695 5.91776C35.4729 5.94807 35.4729 5.9797 35.4749 6.00923C35.4825 6.12415 35.4903 6.23907 35.4978 6.35398C35.5085 6.5182 35.5145 6.68269 35.5278 6.84683C35.5411 7.01087 35.5611 7.17486 35.5775 7.33877C35.5952 7.51577 35.6049 7.69455 35.6364 7.87041C35.669 8.05224 35.7065 8.22917 35.713 8.41241C35.7196 8.5999 35.7292 8.7804 35.7532 8.96699C35.7777 9.15709 35.7992 9.34693 35.8195 9.53733C35.8389 9.72041 35.8756 9.89943 35.9107 10.0811C35.9444 10.2559 35.9384 10.4354 35.9459 10.6118C35.9498 10.7015 35.9583 10.792 35.9686 10.8825C35.97 10.8421 35.9715 10.8017 35.9729 10.7614C35.9735 10.7464 35.9724 10.7299 35.9746 10.715C35.9687 10.5251 35.965 10.3351 35.9595 10.1452C35.9534 9.93577 35.9491 9.72686 35.9477 9.51758C35.9473 9.46063 35.9469 9.40368 35.9466 9.34672C35.9465 9.34315 35.9463 9.33278 35.9462 9.32604C35.946 9.31945 35.9458 9.31295 35.9457 9.31021C35.9423 9.18557 35.939 9.06092 35.9356 8.93627C35.9309 8.76244 35.9398 8.58892 35.936 8.41517C35.9355 8.4148 35.9345 8.40493 35.9326 8.39161C35.9289 8.36505 35.9263 8.33834 35.9232 8.31173C35.9152 8.24407 35.9072 8.17641 35.8992 8.10875C35.89 8.03113 35.8789 7.95654 35.8838 7.87913C35.8918 7.75463 35.8998 7.63014 35.9077 7.50564C35.9081 7.50022 35.9081 7.49442 35.9082 7.48865C35.9092 7.48781 35.9105 7.48143 35.9101 7.46873C35.9101 7.46853 35.9101 7.46833 35.9101 7.46811C35.9102 7.46758 35.9101 7.46698 35.9103 7.46645C35.9101 7.46696 35.9102 7.4671 35.9101 7.4676C35.9083 7.41232 35.907 7.35706 35.9054 7.3018C35.8997 7.0972 35.8902 6.89335 35.8787 6.68872C35.8681 6.499 35.8651 6.30939 35.8576 6.11966C35.8508 5.94648 35.8294 5.7728 35.828 5.59971C35.8248 5.21117 35.8175 4.82225 35.8345 4.43483C35.8512 4.05559 35.8305 3.67494 35.8396 3.29526C35.8471 2.9805 35.8764 2.66745 35.9178 2.35656C35.8527 2.27469 35.7856 2.19477 35.7111 2.11788ZM35.1711 12.8816C35.1732 12.8705 35.1689 12.8475 35.1709 12.8777C35.171 12.879 35.171 12.8803 35.1711 12.8816ZM34.9559 13.3251C34.9558 13.3249 34.9558 13.3248 34.9558 13.3246C34.9547 13.327 34.954 13.3295 34.9536 13.332C34.9541 13.3292 34.955 13.3272 34.9559 13.3251ZM34.9536 13.332C34.9534 13.3334 34.9533 13.3347 34.9532 13.3361C34.9534 13.3347 34.9534 13.3332 34.9536 13.332ZM35.3002 9.61084C35.3029 9.60187 35.2986 9.57079 35.3 9.60521C35.3001 9.60709 35.3001 9.60895 35.3002 9.61084ZM35.2929 3.51586C35.2927 3.52841 35.2915 3.53364 35.2929 3.51586ZM35.467 3.54037C35.467 3.54042 35.467 3.54048 35.467 3.54053C35.467 3.54043 35.467 3.54032 35.467 3.54022C35.467 3.54027 35.467 3.54032 35.467 3.54037ZM35.2382 5.42507C35.2383 5.43967 35.2362 5.45638 35.2382 5.42507ZM36.1728 13.0217C36.1728 13.0222 36.1728 13.0227 36.1728 13.0232C36.1739 13.0289 36.1743 13.0348 36.1744 13.0408C36.1768 13.051 36.18 13.05 36.1728 13.0217ZM35.9819 12.5749C35.9817 12.5889 35.9806 12.5953 35.9819 12.5749ZM35.9864 11.6439C35.9864 11.6436 35.9864 11.6433 35.9863 11.643C35.9859 11.6454 35.9856 11.6476 35.9855 11.6496C35.9858 11.6477 35.986 11.6458 35.9864 11.6439ZM35.9803 2.84819C35.98 2.85079 35.9799 2.85458 35.9799 2.85814C35.98 2.85483 35.9799 2.85141 35.9803 2.84819ZM37.6188 7.17824C37.5697 7.21617 37.516 7.20499 37.4784 7.17289C37.4523 7.15673 37.4323 7.13033 37.4265 7.09257C37.3741 6.75146 37.3373 6.41232 37.2973 6.07032C37.2835 5.9524 37.2728 5.83385 37.2559 5.71617C37.2463 5.64921 37.2234 5.58335 37.2054 5.51772C37.1548 5.33329 37.1066 5.14907 37.0608 4.96367C37.0479 4.91128 37.0345 4.85896 37.022 4.80648C37.0195 4.796 37.0158 4.78529 37.0142 4.77466C37.0147 4.77824 37.015 4.78035 37.0155 4.78314C37.0145 4.7785 37.0135 4.77384 37.0124 4.77035C36.9784 4.6586 36.9451 4.54665 36.9115 4.43481C36.8582 4.25766 36.818 4.07771 36.774 3.89859C36.7723 3.89179 36.7706 3.88498 36.769 3.87816C36.7678 3.8761 36.767 3.87456 36.7647 3.87068C36.7378 3.82369 36.7185 3.77088 36.6958 3.72199C36.6542 3.63212 36.6131 3.54199 36.5708 3.45235C36.5308 3.36744 36.4898 3.28292 36.4493 3.19822C36.4257 3.14898 36.401 3.10005 36.3786 3.05038C36.3772 3.04733 36.3752 3.0439 36.3733 3.04055C36.3726 3.03712 36.3706 3.03146 36.3661 3.02395C36.3657 3.02328 36.3653 3.02259 36.3649 3.02191C36.3647 3.02144 36.3644 3.02093 36.3643 3.02046C36.3643 3.02075 36.3644 3.02091 36.3644 3.02119C36.3139 2.93791 36.2656 2.85304 36.2148 2.76964C36.2154 2.89185 36.2152 3.01403 36.213 3.13634C36.2119 3.19594 36.2112 3.25558 36.2098 3.31516C36.2097 3.31712 36.2099 3.31779 36.21 3.3195C36.2095 3.31773 36.2096 3.31689 36.209 3.31486C36.2097 3.3173 36.2097 3.32012 36.2101 3.32273C36.2104 3.33139 36.2112 3.33667 36.212 3.3374C36.2124 3.34388 36.2125 3.35038 36.2131 3.35632C36.2259 3.48439 36.2388 3.61244 36.2516 3.7405C36.2694 3.91837 36.2799 4.10024 36.2811 4.27823C36.2818 4.39699 36.2816 4.51573 36.2819 4.63448C36.282 4.65878 36.282 4.68309 36.2821 4.70738C36.2821 4.70828 36.2821 4.7088 36.2821 4.70963C36.2821 4.70952 36.2821 4.70943 36.2821 4.70932C36.2821 4.70944 36.2821 4.70959 36.2821 4.70971C36.2824 4.73403 36.2858 4.73374 36.2847 4.72269C36.2928 4.76117 36.2909 4.80627 36.2943 4.84374C36.3138 5.05893 36.331 5.27368 36.3459 5.48902C36.3596 5.68727 36.3815 5.88498 36.4 6.08306C36.4159 6.25281 36.418 6.42502 36.4442 6.59401C36.5087 7.00994 36.5594 7.42359 36.592 7.84171C36.6203 8.20582 36.6672 8.57076 36.71 8.93416C36.7347 9.14433 36.76 9.35261 36.7955 9.56169C36.8202 9.7066 36.8347 9.84816 36.8457 9.99144C36.8432 9.9364 36.8407 9.88137 36.8382 9.82633C36.8313 9.67441 36.7974 9.52082 36.7751 9.36978C36.7528 9.21928 36.7604 9.0645 36.7562 8.91346C36.7521 8.76176 36.7413 8.60993 36.733 8.45822C36.7247 8.30666 36.7069 8.15527 36.6922 8.00391C36.6776 7.85275 36.6743 7.70136 36.6678 7.55001C36.6612 7.39888 36.6491 7.24789 36.6383 7.09681C36.6274 6.94324 36.6292 6.79058 36.6289 6.63705C36.6287 6.59408 36.6285 6.5511 36.6285 6.50813C36.6285 6.5058 36.6286 6.50506 36.6286 6.50322C36.6282 6.50079 36.6277 6.49749 36.6271 6.49199C36.6166 6.39473 36.6118 6.29678 36.6041 6.19939C36.5922 6.04828 36.5896 5.89888 36.5871 5.74763C36.5821 5.44526 36.5779 5.14349 36.5908 4.84205C36.594 4.76755 36.5972 4.69306 36.6004 4.61858C36.6029 4.56168 36.6625 4.52157 36.7177 4.52324C36.7814 4.52517 36.8222 4.5689 36.8373 4.6257C36.8758 4.77052 36.919 4.91507 36.9528 5.06076C36.9846 5.19748 36.9928 5.34129 37.0114 5.47969C37.0458 5.73546 37.1146 5.98986 37.1609 6.24469C37.2076 6.50173 37.2303 6.75909 37.2648 7.01729C37.3028 7.30185 37.3534 7.58132 37.4034 7.86455C37.5003 8.41335 37.5843 8.96354 37.6561 9.51485C37.7258 10.0503 37.7997 10.5863 37.8787 11.1208C37.89 11.1975 37.9035 11.2739 37.9168 11.3504C37.9187 11.2819 37.9206 11.2135 37.9225 11.1451C37.923 11.1278 37.9224 11.1095 37.9238 11.0921C37.9235 11.0901 37.9233 11.0889 37.9229 11.0862C37.8949 10.8592 37.8827 10.6312 37.8766 10.4037C37.8702 10.1676 37.8712 9.93251 37.8731 9.6966C37.8731 9.68988 37.8718 9.66289 37.8722 9.6598C37.8714 9.65269 37.8708 9.646 37.8706 9.64375C37.8652 9.57314 37.8598 9.50253 37.8545 9.43192C37.847 9.33484 37.834 9.23695 37.8397 9.14011C37.8475 9.0043 37.852 8.86773 37.8633 8.73229C37.8635 8.73028 37.8633 8.72961 37.8634 8.72791C37.8639 8.73042 37.8639 8.73207 37.8648 8.7352C37.8639 8.73223 37.8639 8.72886 37.8634 8.72575C37.8636 8.71434 37.8623 8.71104 37.8618 8.71512C37.8604 8.7018 37.8598 8.68823 37.8584 8.67567C37.8506 8.60132 37.8427 8.52696 37.8348 8.45261C37.8249 8.35971 37.8113 8.26969 37.8193 8.1773C37.831 8.04375 37.8467 7.91008 37.8543 7.7761C37.865 7.588 37.8439 7.39765 37.8568 7.2095C37.8622 7.1318 37.8692 7.05537 37.8759 6.97866C37.7899 7.04488 37.7046 7.11196 37.6188 7.17824ZM38.4637 6.56456C38.3886 6.60769 38.3167 6.65575 38.2461 6.70553C38.2614 6.78801 38.2756 6.8706 38.2865 6.95355C38.3162 7.1795 38.3501 7.40013 38.3949 7.62427C38.4727 8.01397 38.5275 8.40623 38.5979 8.79682C38.6355 9.00558 38.6767 9.2134 38.7068 9.42298C38.7209 9.52102 38.7323 9.61758 38.7422 9.71408C38.7452 9.67844 38.7482 9.64284 38.7505 9.60742C38.7537 9.55855 38.7534 9.50725 38.7591 9.45818C38.7592 9.46273 38.7613 9.45388 38.7613 9.43991C38.7615 9.43862 38.7615 9.43727 38.7618 9.43598C38.7616 9.43726 38.7615 9.43802 38.7613 9.43919C38.7613 9.43757 38.7613 9.43603 38.7612 9.43431C38.7598 9.40079 38.7587 9.36727 38.7575 9.33375C38.7479 9.07691 38.7438 8.8211 38.742 8.5644C38.7419 8.54803 38.7417 8.53166 38.7417 8.51528C38.7418 8.55499 38.7417 8.53315 38.7408 8.50486C38.7386 8.43251 38.7364 8.36015 38.7341 8.28779C38.7312 8.19194 38.728 8.09614 38.7266 8.00032C38.7227 7.74118 38.7238 7.48453 38.7317 7.22595C38.7376 7.02897 38.772 6.83519 38.7899 6.63946C38.7985 6.54609 38.8037 6.45127 38.8125 6.35735C38.6984 6.42918 38.582 6.49658 38.4637 6.56456ZM38.969 9.92922C38.9693 9.92832 38.9694 9.9269 38.9695 9.92522C38.9692 9.92648 38.9693 9.92801 38.969 9.92922ZM38.969 9.91027C38.968 9.8992 38.9685 9.90297 38.969 9.91027ZM40.0132 5.65353C40.0131 5.65354 40.0131 5.65351 40.013 5.65352C39.9995 5.66186 39.9854 5.66965 39.9718 5.67764C39.8013 5.77741 39.6327 5.87749 39.4561 5.96725C39.3848 6.00346 39.3127 6.03875 39.2415 6.07544C39.3071 6.46122 39.3722 6.84771 39.4143 7.23528C39.4381 7.45473 39.4434 7.675 39.4678 7.89458C39.4966 8.15371 39.5263 8.41276 39.5566 8.67179C39.5812 8.88187 39.622 9.09112 39.6276 9.30183C39.6309 9.42749 39.6275 9.55494 39.638 9.68052C39.6497 9.82091 39.676 9.96209 39.6949 10.102C39.7224 10.3054 39.7519 10.5128 39.7561 10.7169C39.7589 10.8557 39.7558 10.9956 39.7645 11.1343C39.7692 11.2083 39.7783 11.2825 39.788 11.3567C39.7873 11.1432 39.7926 10.931 39.8088 10.7176C39.8199 10.5714 39.8379 10.4257 39.8523 10.2799C39.8648 10.153 39.8618 10.0231 39.8654 9.89535C39.8722 9.65743 39.8785 9.41945 39.8818 9.18132C39.8835 9.05332 39.8793 8.92366 39.8891 8.79628C39.9004 8.65014 39.9151 8.50409 39.9234 8.35766C39.9316 8.21427 39.9337 8.0701 39.9388 7.92647C39.9434 7.79814 39.97 7.67033 39.9875 7.54369C40.0199 7.30875 40.014 7.06978 40.0364 6.83344C40.0483 6.70674 40.0651 6.57979 40.071 6.45244C40.0779 6.30358 40.0747 6.15279 40.0872 6.00452C40.0983 5.87253 40.1159 5.74127 40.1367 5.61058C40.0993 5.62463 40.0525 5.65039 40.0132 5.65353ZM41.8404 5.04941C41.8388 5.04959 41.8357 5.04985 41.8323 5.0501C41.8267 5.05112 41.8107 5.05331 41.8049 5.05472C41.6851 5.08407 41.5651 5.11289 41.4452 5.14197C41.2667 5.18525 41.0842 5.22852 40.9111 5.28645C40.7744 5.33222 40.65 5.40948 40.5192 5.46997C40.5296 5.55216 40.5407 5.63431 40.5541 5.71639C40.5706 5.81741 40.5952 5.92024 40.6005 6.02204C40.6078 6.1599 40.6085 6.29816 40.6187 6.43595C40.6338 6.63862 40.6821 6.83771 40.6884 7.04097C40.6961 7.29093 40.7102 7.53938 40.7272 7.78933C40.741 7.99193 40.7882 8.19198 40.7884 8.39488C40.7885 8.47501 40.7886 8.55514 40.7887 8.63527C40.7887 8.6653 40.7888 8.69533 40.7888 8.72536C40.7888 8.73403 40.79 8.74254 40.7912 8.74935C40.7904 8.74655 40.7897 8.74387 40.7886 8.73994C40.8027 8.7882 40.8004 8.84617 40.8059 8.89552C40.8146 8.97405 40.8233 9.05258 40.8321 9.1311C40.8435 9.23366 40.8409 9.33623 40.8419 9.43892C40.8427 9.51081 40.8434 9.58269 40.8442 9.65459C40.8442 9.65706 40.8444 9.65879 40.8444 9.66082C40.8445 9.66004 40.8446 9.65926 40.8446 9.65846C40.8463 9.66388 40.8466 9.67023 40.8473 9.67636C40.8479 9.67406 40.8475 9.66716 40.8447 9.65813C40.8517 9.55327 40.8577 9.4483 40.8613 9.34307C40.8691 9.11091 40.8714 8.87889 40.8738 8.64637C40.8756 8.46092 40.9173 8.27653 40.9332 8.09212C40.9538 7.85386 40.9718 7.61733 40.9817 7.37807C40.9907 7.16049 41.0204 6.94751 41.0461 6.7318C41.0695 6.53615 41.0865 6.33953 41.1205 6.14572C41.1619 5.90961 41.2052 5.67422 41.2505 5.43894C41.2585 5.39778 41.2664 5.35662 41.2743 5.31545C41.3024 5.16971 41.5154 5.20595 41.5115 5.35232C41.5086 5.46293 41.5056 5.57353 41.5027 5.68414C41.5014 5.73166 41.5047 5.78217 41.4991 5.82942C41.5009 5.85217 41.5014 5.87506 41.5026 5.8978C41.5135 6.11556 41.5227 6.33214 41.5258 6.54978C41.5288 6.76518 41.5471 6.9777 41.5655 7.19314C41.5729 7.27923 41.5694 7.3654 41.5689 7.45141C41.5686 7.52273 41.5682 7.59404 41.5679 7.66535C41.5678 7.68443 41.5678 7.70353 41.5676 7.72261C41.5676 7.72268 41.5676 7.72263 41.5676 7.72269C41.5805 7.76952 41.576 7.82679 41.5799 7.87459C41.5857 7.94713 41.5915 8.01966 41.5974 8.0922C41.6035 8.16847 41.6113 8.24424 41.6199 8.3204C41.6327 8.43386 41.6459 8.54729 41.659 8.66073C41.6673 8.51176 41.6841 8.36266 41.6989 8.21506C41.724 7.9655 41.7403 7.7191 41.7505 7.46794C41.7585 7.27074 41.7721 7.07401 41.7795 6.87676C41.7843 6.74847 41.7806 6.6167 41.794 6.48932C41.8064 6.37102 41.8363 6.25291 41.8574 6.13608C41.8918 5.94489 41.8714 5.74741 41.8997 5.55574C41.9256 5.37966 41.9576 5.20487 41.9909 5.03034C41.9408 5.03683 41.8907 5.04382 41.8404 5.04941ZM41.7168 9.62281C41.7168 9.62337 41.7169 9.62359 41.7169 9.62412C41.7186 9.62977 41.7193 9.63605 41.7197 9.64252C41.7218 9.6472 41.7231 9.6421 41.7168 9.62281ZM41.6079 10.624C41.6077 10.6227 41.6078 10.6213 41.6076 10.62C41.6077 10.6218 41.6078 10.6235 41.6079 10.6252C41.6079 10.6247 41.6079 10.6244 41.6079 10.624ZM42.3069 4.99808C42.3217 5.3046 42.3364 5.61112 42.3582 5.91754C42.3862 6.31186 42.4404 6.70294 42.5021 7.09493C42.557 7.44283 42.6045 7.79105 42.6534 8.13936C42.6535 8.09942 42.6555 8.05952 42.6581 8.01794C42.6643 7.91847 42.6582 7.80745 42.6756 7.70855C42.6756 7.71502 42.6781 7.70907 42.6778 7.69331C42.6782 7.69154 42.6782 7.68961 42.6786 7.68785C42.6783 7.68951 42.6781 7.69068 42.6778 7.69216C42.6778 7.69085 42.6778 7.68977 42.6777 7.68834C42.6764 7.66193 42.6754 7.63551 42.6742 7.60911C42.6711 7.53945 42.6679 7.46979 42.6648 7.40013C42.6559 7.2022 42.6393 7.00435 42.6302 6.80644C42.6222 6.63054 42.6392 6.45304 42.6442 6.27755C42.6499 6.0757 42.6562 5.87411 42.6565 5.67197C42.6567 5.57694 42.6481 5.47724 42.6575 5.38298C42.669 5.26829 42.6996 5.15337 42.7203 5.04026C42.7241 5.0198 42.7278 4.99934 42.7316 4.97887C42.6918 4.98055 42.6517 4.98089 42.6122 4.98214C42.5084 4.98538 42.4075 4.99052 42.3069 4.99808ZM43.6726 5.22188C43.5762 5.17877 43.4677 5.15254 43.3678 5.11872C43.3213 5.10297 43.2742 5.08831 43.228 5.07144C43.2126 5.07083 43.1944 5.06451 43.1797 5.06156C43.1186 5.0493 43.0575 5.03703 42.9964 5.02477C43.065 5.31479 43.1369 5.60405 43.2062 5.89394C43.2439 6.05197 43.2784 6.21065 43.3146 6.36896C43.3503 6.52497 43.3993 6.68327 43.423 6.84084C43.4256 6.84865 43.4282 6.85651 43.4308 6.8641C43.4465 6.9111 43.4622 6.95811 43.4779 7.00511C43.5089 7.09783 43.5415 7.19027 43.571 7.2834C43.6219 7.4445 43.6489 7.61399 43.6862 7.77793C43.6938 7.81152 43.7012 7.84514 43.7089 7.87873C43.6996 7.29599 43.6978 6.71518 43.7274 6.13442C43.742 5.84873 43.7602 5.56563 43.7849 5.28153C43.748 5.25979 43.7107 5.23893 43.6726 5.22188ZM44.4409 5.73197C44.4404 5.73139 44.4404 5.73139 44.4409 5.73197ZM44.4493 5.74341C44.4374 5.73563 44.4256 5.72437 44.4153 5.71636C44.3139 5.63742 44.2125 5.55848 44.1111 5.47955C44.1107 5.47927 44.1101 5.47887 44.1097 5.47858C44.1216 5.52335 44.134 5.56804 44.1456 5.61288C44.1457 5.61311 44.1457 5.61314 44.1457 5.61336C44.1462 5.61456 44.1463 5.61488 44.1469 5.61646C44.159 5.65016 44.1689 5.68463 44.1799 5.71862C44.2082 5.80601 44.2364 5.8934 44.2646 5.98078C44.3435 6.22493 44.374 6.48455 44.435 6.7333C44.4748 6.89538 44.524 7.05735 44.5647 7.22014C44.5646 7.12001 44.5647 7.01989 44.5646 6.91977C44.5646 6.90505 44.5645 6.89028 44.5646 6.87554C44.5644 6.87273 44.5641 6.86884 44.5637 6.86214C44.5597 6.79884 44.557 6.7355 44.5537 6.67219C44.5479 6.56172 44.5313 6.44816 44.5503 6.33963C44.573 6.20948 44.5957 6.07933 44.6185 5.94918C44.5934 5.91969 44.5683 5.89027 44.5443 5.86067C44.5128 5.82181 44.4785 5.78382 44.4493 5.74341ZM45.0831 7.84202C45.0833 7.83028 45.0893 7.81241 45.0905 7.80437C45.0996 7.74451 45.1086 7.68465 45.1177 7.62478C45.1268 7.56504 45.1358 7.50531 45.1449 7.44557C45.1474 7.42881 45.1478 7.40976 45.1528 7.39358C45.153 7.39266 45.1532 7.39253 45.1535 7.39177C45.138 7.28256 45.1383 7.16936 45.1306 7.05989C45.129 7.03663 45.1089 6.95575 45.1218 6.93568C45.1156 6.91778 45.1098 6.89968 45.1039 6.88173C45.0651 6.76538 45.0222 6.64939 44.9875 6.53203C44.9861 6.52754 44.9827 6.5207 44.9802 6.51415C44.9851 6.52414 44.9933 6.52837 44.9777 6.50204C44.9483 6.45224 44.9188 6.40249 44.8893 6.35271C44.8639 6.30974 44.8397 6.26526 44.8146 6.2213C44.8084 6.25669 44.8022 6.29207 44.796 6.32745C44.7915 6.35322 44.7879 6.37937 44.7825 6.40494C44.7799 6.41719 44.7789 6.42306 44.7784 6.42531C44.7805 6.47094 44.7832 6.5166 44.7856 6.56222C44.7982 6.80181 44.8018 7.0387 44.8019 7.27813C44.8019 7.29705 44.8021 7.316 44.8019 7.33491C44.802 7.33592 44.802 7.33614 44.8021 7.33737C44.8056 7.39595 44.8064 7.45467 44.8086 7.51325C44.8121 7.60988 44.8113 7.70749 44.821 7.80401C44.8342 7.93654 44.8527 8.069 44.8686 8.20138C44.8736 8.24261 44.8738 8.28403 44.8726 8.32545C44.873 8.32477 44.8733 8.32409 44.8737 8.32342C44.9596 8.17069 44.9995 7.99519 45.0831 7.84202ZM44.4505 9.07508C44.4485 9.07866 44.4459 9.08356 44.4424 9.09086C44.4449 9.08555 44.4479 9.08037 44.4505 9.07508ZM44.4514 9.07347C44.4557 9.06603 44.4558 9.06761 44.4514 9.07347ZM44.4009 9.12985C44.4143 9.11487 44.427 9.09866 44.4415 9.08458C44.4458 9.08033 44.449 9.07652 44.4512 9.07366C44.4946 8.98624 44.5483 8.90228 44.596 8.81733C44.5996 8.81094 44.6032 8.80455 44.6068 8.79816C44.6063 8.78555 44.6064 8.7729 44.6058 8.76029C44.5996 8.63451 44.5597 8.50442 44.5352 8.38008C44.4863 8.13239 44.4423 7.88411 44.4035 7.6352C44.3838 7.50869 44.3633 7.38847 44.33 7.26437C44.2966 7.13952 44.2621 7.0149 44.2313 6.88951C44.1995 6.75983 44.1638 6.63034 44.137 6.4998C44.12 6.41728 44.1037 6.33464 44.0871 6.25207C44.0791 6.21223 44.071 6.1724 44.063 6.13257C44.0578 6.10635 44.0453 6.06646 44.0607 6.11096C44.0322 6.02875 44.0056 5.94623 43.98 5.86352C43.9551 6.24981 43.9394 6.63711 43.9369 7.0249C43.9359 7.17549 43.9396 7.32635 43.9404 7.47703C43.9404 7.47939 43.9404 7.48006 43.9404 7.4815C43.9404 7.48357 43.9405 7.48455 43.9405 7.48722C43.9411 7.53327 43.9417 7.57932 43.9423 7.62537C43.9435 7.7188 43.9445 7.81221 43.9459 7.90564C43.9505 8.20481 43.9608 8.50378 43.9697 8.80301C43.9748 8.97034 43.9804 9.14042 43.9739 9.30715C43.9696 9.41422 43.9557 9.5215 43.9419 9.62838C44.055 9.51044 44.1668 9.39134 44.2759 9.26947C44.3176 9.22293 44.3593 9.17639 44.4009 9.12985ZM43.1505 10.4418C43.1534 10.4401 43.1561 10.4379 43.159 10.4362C43.1552 10.4384 43.1534 10.4398 43.1508 10.4415C43.1527 10.4397 43.1541 10.4387 43.1565 10.4362C43.1723 10.4191 43.1887 10.4025 43.2047 10.3857C43.2487 10.3397 43.2926 10.2937 43.3366 10.2478C43.3865 10.1956 43.4357 10.1426 43.4868 10.0915C43.5669 10.0115 43.6466 9.93118 43.726 9.85064C43.703 9.83402 43.6871 9.80864 43.6865 9.77389C43.6863 9.76402 43.6864 9.75405 43.6862 9.74415C43.6862 9.74415 43.6861 9.74415 43.6861 9.74415C43.6862 9.7438 43.6862 9.74346 43.6862 9.74312C43.6844 9.58803 43.6894 9.43097 43.6771 9.27627C43.6643 9.11604 43.6264 8.95592 43.6066 8.79602C43.5868 8.63583 43.586 8.47395 43.5638 8.31399C43.5419 8.15584 43.494 7.99677 43.4586 7.84025C43.4232 7.68295 43.3844 7.52603 43.3514 7.36834C43.3504 7.36385 43.3501 7.36159 43.3496 7.35894C43.3487 7.35651 43.348 7.35477 43.3466 7.35088C43.3318 7.30859 43.3182 7.26592 43.304 7.22346C43.271 7.12482 43.2371 7.02639 43.2051 6.92751C43.1533 6.76801 43.126 6.60018 43.0887 6.43766C43.0528 6.28149 43.0173 6.12526 42.9817 5.96905C42.9536 5.846 42.9234 5.72325 42.8935 5.60047C42.8929 5.7795 42.8913 5.95824 42.8863 6.13715C42.8806 6.34327 42.8742 6.54935 42.8678 6.75544C42.8676 6.76334 42.8676 6.77146 42.8675 6.77957C42.8673 6.7781 42.8671 6.77992 42.8672 6.78599C42.867 6.7905 42.867 6.79504 42.8665 6.79943C42.867 6.7949 42.8671 6.79203 42.8673 6.78888C42.8674 6.79237 42.8674 6.79551 42.8678 6.80112C42.8721 6.8604 42.8752 6.91972 42.8789 6.97901C42.8845 7.06761 42.8908 7.15623 42.8953 7.24484C42.9057 7.44788 42.9204 7.65068 42.9078 7.85271C42.9015 7.95421 42.9043 8.06192 42.8897 8.16284C42.89 8.1562 42.8888 8.15892 42.889 8.16864C42.8883 8.17331 42.8881 8.17816 42.8873 8.1828C42.8881 8.17776 42.8887 8.17382 42.8891 8.17044C42.8892 8.17384 42.8895 8.17766 42.8901 8.18238C42.8936 8.20881 42.896 8.23535 42.899 8.26181C42.9069 8.33164 42.9147 8.40146 42.9226 8.47129C42.9457 8.67708 42.9405 8.88253 42.9363 9.0884C42.9345 9.17354 42.9266 9.25855 42.9213 9.3434C42.9175 9.40493 42.9136 9.46645 42.9098 9.52798C42.909 9.53971 42.9097 9.55284 42.9075 9.56443C42.9097 9.55278 42.9109 9.54601 42.9114 9.54253C42.9107 9.54815 42.9093 9.56121 42.9103 9.57277C42.9284 9.78376 42.9478 9.99039 42.9439 10.201C42.9413 10.3392 42.9359 10.4766 42.9295 10.614C42.9986 10.5589 43.0679 10.4926 43.1438 10.4462C43.1372 10.4515 43.1411 10.4506 43.1505 10.4418ZM42.6728 10.8147C42.6653 10.4473 42.6504 10.0811 42.622 9.71338C42.6051 9.49477 42.5645 9.28531 42.5228 9.06846C42.4891 8.89299 42.4917 8.71295 42.4701 8.5363C42.4185 8.11395 42.3573 7.69054 42.29 7.26964C42.2293 6.89022 42.1632 6.50901 42.1349 6.12704C42.1302 6.06307 42.1262 5.9991 42.122 5.93514C42.12 5.98089 42.1173 6.02651 42.1124 6.07157C42.1 6.18574 42.0718 6.29955 42.0514 6.41236C42.0349 6.50399 42.0288 6.58874 42.0253 6.68252C42.0162 6.92785 42.0036 7.1727 41.9915 7.4178C41.9814 7.62012 41.9792 7.8228 41.959 8.02406C41.9346 8.26787 41.9139 8.51156 41.8952 8.75609C41.8805 8.94787 41.8902 9.14269 41.8868 9.33545C41.8845 9.46424 41.8888 9.59509 41.88 9.72334C41.8717 9.84271 41.85 9.96198 41.8351 10.0805C41.8318 10.1067 41.8298 10.1336 41.8251 10.1595C41.8244 10.1638 41.8238 10.1663 41.8232 10.1686C41.8283 10.2257 41.8288 10.2835 41.8316 10.3405C41.837 10.4488 41.846 10.5576 41.8451 10.6657C41.8429 10.9055 41.8394 11.1452 41.8377 11.385C41.9967 11.2836 42.1556 11.1821 42.3145 11.0805C42.4402 11.0001 42.5563 10.9069 42.6728 10.8147ZM41.1499 11.8109C41.1577 11.8069 41.1656 11.8028 41.1735 11.7988C41.1755 11.7974 41.1787 11.7952 41.1845 11.7915C41.2279 11.7631 41.2733 11.7371 41.3176 11.71C41.4119 11.6522 41.505 11.593 41.5986 11.5345C41.572 11.1313 41.5396 10.7282 41.5302 10.3249C41.5251 10.1105 41.5044 9.89878 41.4839 9.68442C41.4756 9.59753 41.4793 9.50999 41.479 9.42314C41.4787 9.35231 41.4785 9.28148 41.4782 9.21065C41.4782 9.19315 41.4781 9.17563 41.478 9.15813C41.4777 9.15701 41.4775 9.15657 41.477 9.15478C41.4475 9.0337 41.4471 8.90021 41.4327 8.77721C41.4237 8.70065 41.415 8.62408 41.4064 8.54751C41.3814 8.32547 41.36 8.10439 41.3421 7.88201C41.3253 7.67314 41.3296 7.46469 41.3325 7.25602C41.3325 7.25606 41.3324 7.25599 41.3325 7.25602C41.3274 7.23879 41.3291 7.21735 41.3276 7.19972C41.3217 7.13044 41.3158 7.06116 41.3099 6.99188C41.3028 6.90956 41.2929 6.82707 41.2917 6.74468C41.2915 6.72985 41.2912 6.71506 41.291 6.70023C41.2692 6.88077 41.2393 7.0611 41.226 7.2425C41.2097 7.46547 41.2084 7.68932 41.1892 7.91212C41.169 8.14552 41.1431 8.37742 41.116 8.60993C41.0947 8.79323 41.1119 8.98289 41.1056 9.16789C41.0901 9.62645 41.0422 10.0803 41.0217 10.5385C41.0169 10.6469 41.0138 10.7555 41.01 10.864C41.0083 10.9103 41.0098 10.9587 41.0053 11.005C41.0053 10.9953 41.004 10.9924 41.0045 11.0162C41.0045 11.0165 41.0046 11.0169 41.0046 11.0173C41.0045 11.0178 41.0045 11.0184 41.0045 11.0189C41.0045 11.0185 41.0045 11.0182 41.0046 11.0178C41.0053 11.0472 41.0058 11.0766 41.0065 11.1059C41.0119 11.3538 41.01 11.5962 40.9984 11.8432C40.9977 11.8586 40.9969 11.8741 40.9962 11.8895C41.0474 11.8633 41.0986 11.8371 41.1499 11.8109ZM40.3504 12.2454C40.3542 12.2437 40.3549 12.2434 40.3504 12.2454ZM40.2815 12.2745C40.3008 12.2663 40.3198 12.2576 40.3393 12.2499C40.3418 12.2489 40.3421 12.2488 40.3439 12.248C40.4752 12.1581 40.623 12.0807 40.7669 12.007C40.7601 11.9945 40.756 11.98 40.7555 11.9634C40.7493 11.7402 40.7435 11.5177 40.7286 11.2945C40.7129 11.0617 40.6803 10.8298 40.6638 10.5971C40.649 10.3878 40.6573 10.1797 40.6366 9.97028C40.6116 9.71647 40.6055 9.46899 40.6028 9.21481C40.6025 9.1914 40.5979 9.19058 40.5987 9.20054C40.5964 9.18508 40.5971 9.16765 40.5956 9.15375C40.5868 9.07521 40.5781 8.99669 40.5694 8.91815C40.5582 8.81737 40.5516 8.72115 40.5515 8.62035C40.5514 8.53964 40.5513 8.45893 40.5512 8.37822C40.5512 8.35182 40.5511 8.32543 40.5512 8.29904C40.5512 8.29854 40.5512 8.29804 40.5512 8.29754C40.5509 8.29715 40.5508 8.2972 40.5506 8.29672C40.5276 8.24902 40.534 8.16645 40.5274 8.11525C40.5178 8.03994 40.5082 7.96463 40.4986 7.88933C40.4736 7.69345 40.4651 7.49389 40.4591 7.29735C40.4553 7.17537 40.4583 7.05153 40.4477 6.92963C40.4365 6.80148 40.4112 6.67253 40.393 6.54484C40.3655 6.35097 40.3855 6.15456 40.3539 5.96126C40.3502 5.93847 40.3472 5.91586 40.3436 5.89311C40.3142 6.12937 40.321 6.3684 40.2986 6.60547C40.2862 6.73661 40.2697 6.86785 40.2622 6.99953C40.2536 7.14934 40.2549 7.30068 40.2423 7.45003C40.2306 7.58742 40.2048 7.72432 40.186 7.8607C40.1692 7.98236 40.1709 8.10671 40.1665 8.22976C40.1579 8.46883 40.126 8.70606 40.1227 8.94531C40.1188 9.2322 40.1135 9.5189 40.1062 9.8056C40.0995 10.0671 40.0888 10.3238 40.063 10.5832C40.0516 10.698 40.0429 10.8117 40.0367 10.9271C40.0321 11.0147 40.0274 11.1023 40.0227 11.1899C40.022 11.2024 40.0214 11.2259 40.0209 11.2251C40.0213 11.2445 40.0216 11.264 40.022 11.2834C40.0246 11.4233 40.0385 11.5681 40.0287 11.7073C40.018 11.8588 39.9837 12.0078 39.9709 12.1591C39.964 12.2413 39.9649 12.3252 39.9664 12.409C40.0086 12.3904 40.0512 12.3726 40.0937 12.3545C40.1563 12.3278 40.2189 12.3012 40.2815 12.2745ZM39.485 12.6568C39.4719 12.6637 39.4773 12.6608 39.485 12.6568ZM39.4966 12.6509C39.4954 12.6514 39.4935 12.6524 39.4915 12.6534C39.4932 12.6526 39.4949 12.6517 39.4966 12.6509ZM37.7458 13.372C37.9178 13.3017 38.081 13.214 38.258 13.1547C38.4489 13.0907 38.6386 13.0266 38.8265 12.9556C39.0194 12.8827 39.1964 12.8009 39.38 12.7091C39.4163 12.691 39.4523 12.6722 39.489 12.6547C39.5083 12.6444 39.5277 12.6343 39.547 12.6242C39.5811 12.6063 39.6151 12.5884 39.6492 12.5705C39.6293 12.2637 39.6104 11.9568 39.5841 11.6505C39.5648 11.4258 39.529 11.2052 39.5244 10.9803C39.5192 10.721 39.4979 10.4686 39.4692 10.2096C39.4456 9.99712 39.4034 9.78681 39.3977 9.57377C39.3945 9.45176 39.3981 9.32781 39.3873 9.20589C39.3746 9.06281 39.3494 8.91929 39.3305 8.77659C39.2684 8.30692 39.2189 7.83606 39.1858 7.36493C39.163 7.03942 39.1108 6.71322 39.055 6.38842C39.0513 6.42337 39.0471 6.45828 39.0439 6.49303C39.0233 6.7179 38.9886 6.94186 38.9719 7.16701C38.9631 7.28647 38.9645 7.40782 38.9609 7.52773C38.9601 7.55432 38.9598 7.58101 38.9584 7.60757C38.9582 7.61305 38.9579 7.61685 38.9578 7.61934C38.9588 7.67848 38.9595 7.73762 38.9604 7.79676C38.9639 8.03395 38.9723 8.27104 38.9782 8.50828C38.981 8.62485 38.9802 8.74144 38.981 8.85796C38.9813 8.89873 38.9814 8.93951 38.9818 8.98029C38.982 8.98124 38.9827 9.00747 38.9831 9.01674C38.9844 9.05228 38.9857 9.08782 38.987 9.12336C38.9914 9.24038 39.0027 9.35957 38.9988 9.47635C38.9941 9.61208 38.9809 9.74766 38.9721 9.88302C38.9712 9.89548 38.9719 9.91046 38.9697 9.92337C38.9699 9.92963 38.9702 9.9359 38.9705 9.94213C38.974 10.0183 38.9774 10.0945 38.9809 10.1707C38.9851 10.2635 38.9894 10.3561 38.9913 10.4488C38.9967 10.702 39.0051 10.9545 39.0162 11.2078C39.0251 11.4088 39.0659 11.6157 39.0512 11.8154C39.038 11.9945 39.0287 12.1725 39.0221 12.3512C39.0199 12.4309 39.0174 12.5107 39.0153 12.5904C39.0144 12.6269 39.0135 12.6635 39.0125 12.7001C39.0087 12.848 38.7728 12.8089 38.7753 12.6632C38.7775 12.5323 38.7797 12.4019 38.7841 12.2716C38.784 12.2456 38.785 12.2198 38.787 12.1943C38.7871 12.1909 38.7872 12.1875 38.7874 12.1841C38.7874 12.184 38.7874 12.184 38.7874 12.1839C38.7838 12.1603 38.7833 12.136 38.7813 12.1123C38.7622 11.8862 38.7397 11.6687 38.6992 11.4447C38.6597 11.2272 38.6461 11.0156 38.632 10.7958C38.6203 10.6133 38.5634 10.4337 38.5437 10.2518C38.5221 10.0509 38.5283 9.84973 38.4995 9.64902C38.4672 9.42402 38.4319 9.2012 38.3906 8.97725C38.3192 8.59068 38.2665 8.20168 38.1921 7.81549C38.1595 7.64617 38.1233 7.47804 38.096 7.30844C38.0919 7.45057 38.0909 7.59256 38.0922 7.73683C38.093 7.82356 38.0832 7.90873 38.0757 7.99487C38.0693 8.06797 38.0629 8.14106 38.0566 8.21415C38.0555 8.22633 38.0551 8.23975 38.0538 8.25265C38.0537 8.24653 38.0527 8.24676 38.0533 8.25689C38.0528 8.26055 38.0528 8.26448 38.0519 8.26789C38.0529 8.26409 38.0531 8.26108 38.0534 8.25805C38.0536 8.26132 38.0536 8.26371 38.0543 8.26911C38.0712 8.40539 38.0832 8.54219 38.0977 8.67864C38.1081 8.7767 38.0943 8.87619 38.0887 8.97362C38.0847 9.0414 38.0808 9.10918 38.0769 9.17696C38.0767 9.18075 38.0761 9.19228 38.0756 9.20164C38.0763 9.21133 38.0769 9.22543 38.0773 9.22975C38.0877 9.36594 38.0995 9.50216 38.1084 9.63839C38.1152 9.74042 38.1094 9.84329 38.1086 9.94514C38.1081 10.0107 38.1079 10.0763 38.107 10.1418C38.107 10.1454 38.1069 10.1482 38.1069 10.1507C38.1069 10.1472 38.1068 10.1431 38.1065 10.1389C38.1068 10.1434 38.1068 10.1479 38.1069 10.1523C38.1068 10.1632 38.107 10.1613 38.107 10.1545C38.1074 10.1692 38.1078 10.1838 38.1082 10.1984C38.1146 10.4373 38.1248 10.6723 38.1459 10.911C38.154 11.0022 38.1623 11.0909 38.1597 11.182C38.1562 11.31 38.1645 11.4449 38.1492 11.5718C38.1494 11.5728 38.1495 11.5732 38.1497 11.5744C38.1533 11.5997 38.1545 11.6254 38.157 11.6507C38.1643 11.7277 38.1716 11.8048 38.179 11.8818C38.1878 11.9743 38.1936 12.0625 38.1914 12.1547C38.1856 12.393 38.1772 12.6302 38.1647 12.868C38.1624 12.9112 38.1601 12.9544 38.1579 12.9976C38.1511 13.1268 37.9335 13.12 37.921 12.9905C37.9068 12.8423 37.8994 12.6922 37.8782 12.5445C37.8579 12.4041 37.813 12.2628 37.7801 12.1241C37.75 11.9972 37.7458 11.865 37.7322 11.7363C37.7184 11.6065 37.6974 11.4786 37.6761 11.3494C37.5882 10.8158 37.5185 10.2783 37.4464 9.74307C37.3714 9.18679 37.2889 8.63302 37.1982 8.07829C37.1569 7.82576 37.0998 7.57468 37.0659 7.32149C37.0288 7.0437 37.0057 6.76338 36.9641 6.48621C36.9276 6.24238 36.8758 5.99957 36.8241 5.75743C36.8242 5.75996 36.8242 5.76248 36.8243 5.76501C36.8257 5.84992 36.8246 5.93516 36.8285 6.02012C36.8356 6.17476 36.8569 6.32935 36.8648 6.48398C36.8731 6.64521 36.8672 6.80779 36.8668 6.96886C36.8672 6.97201 36.8677 6.97613 36.8683 6.98259C36.8723 7.02548 36.8744 7.06855 36.8775 7.11147C36.8844 7.20894 36.892 7.30643 36.8983 7.40393C36.9081 7.55563 36.9121 7.70759 36.9187 7.85933C36.9253 8.01174 36.9465 8.16483 36.9612 8.31702C36.9906 8.62058 36.9937 8.9265 37.002 9.23025C37.0062 9.3819 37.0393 9.5344 37.0616 9.68513C37.0835 9.83373 37.0829 9.98398 37.0897 10.1332C37.0968 10.2899 37.0954 10.4463 37.0962 10.6028C37.0964 10.6351 37.0966 10.6675 37.0967 10.6998C37.0966 10.6994 37.0966 10.6991 37.0966 10.6987C37.0967 10.6994 37.0966 10.7 37.0967 10.7007C37.0967 10.7045 37.0968 10.7083 37.0968 10.7122C37.0968 10.7242 37.0976 10.7263 37.098 10.7227C37.098 10.7251 37.0982 10.7276 37.0984 10.73C37.1052 10.8312 37.1099 10.9324 37.1156 11.0335C37.1328 11.3353 37.1628 11.6371 37.1886 11.9387C37.2021 12.0968 37.1974 12.2465 37.1902 12.4043C37.1881 12.4511 37.186 12.4978 37.1838 12.5446C37.1833 12.5566 37.1833 12.5691 37.1821 12.5812C37.1946 12.6664 37.1905 12.7567 37.1948 12.8421C37.2024 12.9949 37.2047 13.1459 37.2045 13.2985C37.2044 13.351 37.2044 13.4034 37.2043 13.4559C37.2043 13.473 37.2043 13.4901 37.2042 13.5072C37.2042 13.5093 37.2042 13.5134 37.2042 13.5175C37.2043 13.5199 37.2044 13.5222 37.2044 13.5235C37.2048 13.5355 37.2051 13.5474 37.2054 13.5594C37.2274 13.552 37.2496 13.5448 37.2716 13.5373C37.4296 13.4839 37.5921 13.4349 37.7458 13.372ZM35.5791 14.0173C35.7791 13.9663 35.9716 13.9115 36.1664 13.8465C36.3608 13.7817 36.5556 13.7414 36.7578 13.6993C36.7803 13.6946 36.8028 13.6899 36.8253 13.6853C36.8282 13.6847 36.8294 13.684 36.8318 13.6834C36.8305 13.6841 36.8301 13.6841 36.8287 13.6849C36.8298 13.6843 36.8313 13.6838 36.8324 13.6832C36.847 13.6791 36.8513 13.6755 36.8464 13.6765C36.8738 13.6649 36.9083 13.6584 36.9344 13.6497C36.9416 13.6473 36.9488 13.6449 36.9559 13.6425C36.9374 13.3593 36.9209 13.076 36.8943 12.7929C36.8748 12.5855 36.8617 12.3782 36.8481 12.1706C36.837 12.0009 36.799 11.8306 36.7757 11.6615C36.7188 11.2493 36.6887 10.8372 36.6426 10.4244C36.6206 10.2278 36.6195 10.0308 36.6003 9.8342C36.5837 9.66366 36.5368 9.4948 36.5168 9.32434C36.4675 8.90553 36.421 8.48657 36.3744 8.06758C36.3338 7.70188 36.3192 7.33564 36.2626 6.97071C36.2296 6.75796 36.1998 6.54942 36.1824 6.33577C36.1654 6.12668 36.1451 5.91789 36.1245 5.70893C36.1075 5.53546 36.1012 5.36154 36.087 5.18796C36.0792 5.09255 36.0692 4.99735 36.0608 4.90217C36.0611 5.03394 36.0623 5.16576 36.0631 5.29751C36.0638 5.40648 36.0656 5.51557 36.0652 5.6245C36.0654 5.62616 36.0655 5.62732 36.0658 5.63001C36.0677 5.65035 36.0683 5.67087 36.0696 5.69123C36.0738 5.75945 36.078 5.82767 36.0822 5.89588C36.0944 6.09434 36.1003 6.29243 36.1066 6.49092C36.1178 6.84077 36.1669 7.19897 36.1446 7.5476C36.1366 7.6721 36.1286 7.79659 36.1207 7.92109C36.1203 7.92651 36.1202 7.93214 36.1201 7.93776C36.1197 7.93716 36.1194 7.93993 36.1195 7.94549C36.1192 7.95049 36.119 7.95553 36.1181 7.96029C36.1192 7.95473 36.1194 7.95153 36.1197 7.94802C36.1199 7.95107 36.1199 7.95369 36.1205 7.95805C36.1287 8.01358 36.1337 8.06962 36.1403 8.12528C36.1522 8.22565 36.1722 8.3286 36.1729 8.4293C36.1736 8.53743 36.172 8.64553 36.1716 8.75362C36.1714 8.79522 36.1726 8.83719 36.1711 8.87875C36.172 8.90231 36.1724 8.92586 36.1731 8.9494C36.1763 9.06885 36.18 9.18832 36.1827 9.30777C36.1847 9.39537 36.1844 9.48296 36.185 9.57052C36.1854 9.63384 36.1858 9.69716 36.1863 9.76049C36.1864 9.77332 36.1865 9.78616 36.1865 9.79899C36.1866 9.80041 36.1866 9.80103 36.1867 9.80306C36.2029 10.1997 36.2173 10.5981 36.2031 10.9935C36.2009 11.0528 36.1988 11.1121 36.1966 11.1714C36.1962 11.1835 36.1967 11.1961 36.1953 11.2081C36.1957 11.2043 36.196 11.2013 36.1963 11.1984C36.1964 11.2013 36.1965 11.2044 36.1967 11.2079C36.2058 11.3317 36.2124 11.4557 36.2202 11.5795C36.225 11.6547 36.2219 11.7275 36.2182 11.8025C36.2131 11.9057 36.223 12.0233 36.203 12.1248C36.2042 12.1104 36.2009 12.1012 36.2021 12.1267C36.2022 12.1278 36.2022 12.1289 36.2023 12.13C36.202 12.1312 36.202 12.1325 36.2018 12.1337C36.202 12.1326 36.2021 12.1315 36.2023 12.1304C36.2034 12.1538 36.2041 12.1772 36.205 12.2007C36.2077 12.2677 36.2103 12.3347 36.2129 12.4017C36.216 12.4818 36.2205 12.5617 36.2191 12.6416C36.2156 12.8381 36.2118 13.0346 36.2107 13.2312C36.2101 13.3305 36.2096 13.4298 36.209 13.5291C36.2083 13.6586 35.9819 13.6514 35.9722 13.522C35.9589 13.3472 35.9359 13.1702 35.9356 12.9954C35.9353 12.8802 35.9359 12.765 35.936 12.6498C35.9361 12.619 35.9357 12.588 35.9361 12.5571C35.9358 12.5561 35.9356 12.5559 35.9351 12.5544C35.9293 12.5349 35.9297 12.5113 35.9272 12.4913C35.8808 12.1205 35.8519 11.7485 35.7968 11.3786C35.7413 11.0067 35.7095 10.638 35.6939 10.2644C35.6865 10.0893 35.6352 9.91526 35.6043 9.74183C35.575 9.57709 35.5687 9.40859 35.5493 9.24288C35.5301 9.07963 35.4973 8.9152 35.4876 8.75158C35.4772 8.57412 35.4898 8.39416 35.4582 8.21787C35.4258 8.03727 35.3906 7.85834 35.3724 7.67651C35.3701 7.65352 35.3678 7.63053 35.3655 7.60753C35.3645 7.63887 35.3636 7.67021 35.3626 7.70155C35.3622 7.7153 35.3629 7.72967 35.3613 7.74333C35.3617 7.74031 35.3619 7.73828 35.3621 7.73588C35.362 7.73955 35.362 7.74344 35.3622 7.74764C35.3648 7.80941 35.3669 7.87119 35.3692 7.93294C35.3776 8.15664 35.3736 8.37591 35.3661 8.5991C35.3599 8.78239 35.3623 8.96716 35.35 9.14983C35.3426 9.25843 35.3265 9.36678 35.3148 9.47485C35.3106 9.51413 35.3155 9.57409 35.3002 9.61101C35.3011 9.63308 35.3017 9.65516 35.3024 9.67724C35.317 10.1108 35.3021 10.5405 35.2882 10.9728C35.2826 11.1477 35.2551 11.3207 35.2481 11.4955C35.2401 11.6945 35.2433 11.8943 35.235 12.0934C35.2259 12.312 35.21 12.525 35.1862 12.742C35.1815 12.7846 35.1853 12.841 35.1711 12.8819C35.1726 12.9067 35.1736 12.9316 35.1749 12.9564C35.181 13.0766 35.1887 13.1969 35.1931 13.3171C35.1966 13.4109 35.1767 13.5058 35.1659 13.5982C35.1585 13.661 35.1512 13.7239 35.1438 13.7867C35.1433 13.7914 35.1432 13.7969 35.1429 13.8024C35.1421 13.8039 35.1415 13.8079 35.1411 13.8142C35.1406 13.8168 35.1406 13.8198 35.1397 13.822C35.1405 13.8202 35.1404 13.8193 35.141 13.8177C35.1409 13.8203 35.1405 13.8216 35.1407 13.8249C35.1456 13.925 35.1515 14.024 35.1538 14.1227C35.2955 14.0873 35.4377 14.0535 35.5791 14.0173ZM34.2263 13.4108C34.2915 13.5747 34.3806 13.7302 34.4587 13.8891C34.5177 14.0092 34.5725 14.1312 34.6279 14.2528C34.7046 14.2343 34.781 14.2147 34.8577 14.1959C34.857 14.1655 34.8567 14.1351 34.8559 14.1047C34.8488 13.8456 34.8568 13.5947 34.872 13.3367C34.8729 13.3213 34.8707 13.3015 34.8749 13.2867C34.8736 13.2913 34.8726 13.2952 34.8718 13.2983C34.8721 13.2932 34.8721 13.2866 34.8712 13.2789C34.8629 13.2081 34.8547 13.1373 34.8464 13.0665C34.8343 12.9635 34.8171 12.8611 34.8204 12.758C34.8248 12.6192 34.8237 12.4791 34.8336 12.3408C34.8337 12.339 34.8338 12.3386 34.8339 12.3373C34.8331 12.3145 34.8327 12.2918 34.8322 12.269C34.8301 12.1865 34.8281 12.104 34.826 12.0215C34.8236 11.9253 34.8221 11.8294 34.8223 11.7333C34.8225 11.6526 34.8227 11.5718 34.8229 11.491C34.8229 11.4613 34.8229 11.4315 34.8231 11.4018C34.8231 11.3977 34.8228 11.3955 34.8226 11.3923C34.8229 11.3939 34.8229 11.3944 34.8233 11.3962C34.823 11.3947 34.8229 11.3931 34.8226 11.3916C34.822 11.3792 34.8207 11.3745 34.8207 11.3785C34.8129 11.3281 34.8149 11.2737 34.8116 11.2239C34.8062 11.1455 34.8008 11.067 34.7955 10.9885C34.7887 10.8889 34.7925 10.7905 34.7947 10.6911C34.7999 10.4465 34.8039 10.2016 34.8129 9.95724C34.813 9.9544 34.813 9.95259 34.8131 9.95048C34.8132 9.95328 34.8133 9.95606 34.8137 9.95811C34.8133 9.95563 34.8134 9.95301 34.8131 9.95048C34.8128 9.94065 34.8137 9.93111 34.8131 9.95048C34.811 9.93181 34.8116 9.91224 34.8107 9.89379C34.8071 9.81536 34.8035 9.73691 34.7999 9.65848C34.7953 9.55863 34.7915 9.45944 34.7914 9.35968C34.7914 9.27939 34.7914 9.1991 34.7914 9.11881C34.7914 9.08645 34.7913 9.05409 34.7913 9.02173C34.7913 9.00596 34.7856 8.94119 34.7916 9.00393C34.7791 8.87443 34.7813 8.74264 34.7762 8.61298C34.7681 8.40713 34.7395 8.20074 34.7381 7.99509C34.7371 7.85458 34.7365 7.71409 34.7358 7.57359C34.7358 7.56874 34.7355 7.56367 34.7352 7.5589C34.7355 7.56111 34.7356 7.56272 34.7359 7.56544C34.734 7.54854 34.7346 7.53108 34.7339 7.51418C34.7309 7.43532 34.7278 7.35646 34.7247 7.27761C34.7157 7.04486 34.7182 6.81307 34.7189 6.58054C34.7192 6.4605 34.7193 6.34045 34.7195 6.22041C34.7195 6.19063 34.7195 6.16084 34.7196 6.13107C34.7197 6.11125 34.7183 6.07412 34.7199 6.12541C34.7182 6.07065 34.7175 6.01589 34.7162 5.96114C34.7106 5.71125 34.7049 5.46137 34.6993 5.21149C34.6969 5.10769 34.6994 5.00406 34.7005 4.90039C34.7012 4.82864 34.7015 4.75684 34.7027 4.68511C34.7028 4.6823 34.7028 4.68058 34.7028 4.67848C34.7029 4.6814 34.703 4.68422 34.7031 4.68592C34.7029 4.68339 34.703 4.68079 34.7028 4.67824C34.7031 4.65932 34.7027 4.66854 34.7028 4.67781C34.7014 4.65913 34.7013 4.64014 34.7005 4.62156C34.6902 4.36796 34.6796 4.11439 34.6684 3.8608C34.6663 3.81252 34.6655 3.76434 34.6651 3.71619C34.6493 3.9393 34.6312 4.16215 34.631 4.3861C34.6309 4.49757 34.6368 4.61091 34.6307 4.72198C34.6251 4.82572 34.6074 4.92959 34.5958 5.03261C34.5732 5.23258 34.5665 5.43308 34.5532 5.63418C34.542 5.80243 34.4987 5.96688 34.4843 6.1348C34.4668 6.33883 34.4525 6.54327 34.4404 6.74788C34.4171 7.14526 34.375 7.53864 34.3302 7.93335C34.3098 8.11298 34.2795 8.2937 34.2814 8.47544C34.2827 8.59719 34.29 8.72059 34.2854 8.84203C34.2818 8.93567 34.2649 9.02981 34.2545 9.12268C34.2118 9.50033 34.2127 9.88125 34.18 10.2596C34.1615 10.4735 34.1439 10.6857 34.1365 10.9006C34.1291 11.1165 34.1018 11.3233 34.0723 11.5368C34.0489 11.7057 34.0731 11.8825 34.068 12.0534C34.0672 12.082 34.0658 12.1105 34.0647 12.139C34.0647 12.3245 34.061 12.5099 34.0523 12.6955C34.0483 12.783 34.0442 12.8705 34.0401 12.9579C34.1056 13.1078 34.1659 13.259 34.2263 13.4108ZM33.3447 11.3236C33.352 11.3512 33.3482 11.3283 33.3441 11.3181C33.3502 11.3278 33.3542 11.341 33.3588 11.3511C33.4338 11.5178 33.5158 11.6812 33.5702 11.8544C33.6041 11.9623 33.6321 12.0739 33.6725 12.18C33.6986 12.2487 33.7375 12.3147 33.7705 12.3808C33.7855 12.4111 33.7997 12.4415 33.8145 12.4718C33.8207 12.2809 33.8263 12.0901 33.8283 11.899C33.8161 11.5266 33.8114 11.1559 33.828 10.7847C33.8307 10.7248 33.8333 10.6649 33.836 10.605C33.8369 10.5848 33.8374 10.5644 33.8387 10.5442C33.8392 10.5365 33.8395 10.5314 33.8397 10.5279C33.8386 10.4286 33.8357 10.3291 33.8338 10.2297C33.8301 10.0441 33.8182 9.85892 33.8074 9.67324C33.7869 9.32504 33.7509 8.97888 33.7414 8.63032C33.739 8.54196 33.7393 8.45356 33.7383 8.36524C33.7376 8.30646 33.7369 8.24769 33.7363 8.18892C33.7361 8.17299 33.7359 8.15707 33.7357 8.14115C33.7356 8.14066 33.7356 8.14079 33.7354 8.1401C33.7153 8.03402 33.7226 7.91732 33.7165 7.81026C33.7127 7.74473 33.7089 7.67922 33.7054 7.61369C33.6854 7.23582 33.6548 6.85838 33.6334 6.48057C33.6223 6.28438 33.6211 6.09394 33.626 5.89811C33.6273 5.84697 33.6282 5.79578 33.6299 5.74467C33.6303 5.73457 33.6296 5.72411 33.6307 5.71409C33.6301 5.71936 33.6298 5.72298 33.6294 5.72662C33.6298 5.72098 33.63 5.71494 33.6298 5.7105C33.6245 5.59486 33.6207 5.4792 33.6161 5.36356C33.6018 5.00001 33.5659 4.64009 33.587 4.27706C33.5866 4.26021 33.5863 4.24336 33.586 4.22651C33.5846 4.16057 33.5833 4.09464 33.582 4.02871C33.582 4.02727 33.582 4.02584 33.5819 4.0244C33.5752 4.23825 33.5751 4.45276 33.5683 4.66635C33.5634 4.81894 33.541 4.97144 33.5265 5.12307C33.512 5.27463 33.5098 5.42824 33.5022 5.58051C33.4871 5.88491 33.4643 6.18822 33.4398 6.49164C33.4276 6.64277 33.4279 6.7954 33.4236 6.94721C33.4231 6.96435 33.4228 6.9815 33.4221 6.99862C33.422 7.0012 33.4217 7.0079 33.4214 7.01349C33.4214 7.01393 33.4214 7.01454 33.4214 7.01489C33.4216 7.03331 33.4218 7.05173 33.422 7.07014C33.4234 7.17572 33.4247 7.2813 33.426 7.38688C33.4298 7.69492 33.3971 8.00384 33.3871 8.31152C33.3823 8.45995 33.3662 8.60647 33.352 8.75401C33.3482 8.79378 33.3463 8.83442 33.3405 8.8739C33.3398 8.87814 33.3394 8.88026 33.3389 8.8825C33.3391 8.88451 33.3392 8.88549 33.3394 8.88819C33.3454 8.98494 33.3493 9.08179 33.3542 9.17855C33.3697 9.48352 33.3501 9.7875 33.3292 10.0905C33.3188 10.2407 33.309 10.3909 33.2996 10.5411C33.2963 10.5929 33.2931 10.6447 33.2898 10.6965C33.2889 10.7102 33.2864 10.7658 33.2854 10.7592C33.2858 10.831 33.2889 10.903 33.2906 10.9748C33.2919 11.0294 33.2931 11.0841 33.2944 11.1388C33.2985 11.154 33.3027 11.1691 33.3068 11.1843C33.3194 11.2307 33.3322 11.2771 33.3447 11.3236ZM33.5871 4.28438C33.5871 4.28205 33.587 4.27973 33.587 4.2774C33.5866 4.29016 33.5878 4.31275 33.5871 4.28438ZM32.6182 9.03327C32.6224 9.05133 32.627 9.0694 32.6307 9.08753C32.6507 9.12063 32.6598 9.16732 32.6728 9.20273C32.695 9.26281 32.7171 9.3229 32.7392 9.38298C32.8052 9.56213 32.8502 9.74451 32.8992 9.92805C32.9042 9.94695 32.9094 9.96581 32.9143 9.98474C32.9149 9.98705 32.9152 9.98846 32.9157 9.99011C32.9264 10.0263 32.937 10.0626 32.9476 10.0989C32.9751 10.1924 33.0003 10.287 33.0299 10.3801C33.0321 10.3522 33.0344 10.3242 33.0362 10.2966C33.0366 10.2901 33.0365 10.283 33.0369 10.2762C33.0326 10.2436 33.0335 10.2091 33.0317 10.1768C33.0263 10.0792 33.0209 9.98167 33.0156 9.88411C33.0077 9.74288 33.0047 9.60158 32.9998 9.46036C32.995 9.31883 32.9815 9.17772 32.9699 9.03626C32.958 8.89078 32.9574 8.74787 32.9571 8.60231C32.9571 8.55793 32.957 8.51354 32.9569 8.46915C32.9569 8.45314 32.9568 8.43714 32.9568 8.42113C32.957 8.42154 32.9569 8.42163 32.9571 8.42204C32.957 8.42171 32.9569 8.4213 32.9568 8.42097C32.9568 8.41991 32.9568 8.41886 32.9568 8.4178C32.9568 8.4008 32.9526 8.39466 32.9524 8.40073C32.9382 8.33936 32.9425 8.26479 32.937 8.20516C32.9241 8.06693 32.9132 7.9316 32.9101 7.79339C32.9068 7.64713 32.9021 7.50103 32.9043 7.35498C32.9058 7.25458 32.9073 7.15419 32.9089 7.05378C32.9091 7.0393 32.9091 7.02479 32.9095 7.01032C32.9089 7.00708 32.9084 7.00376 32.908 7.00189C32.9045 6.98261 32.9032 6.96258 32.9009 6.94317C32.8827 6.7939 32.8478 6.63797 32.8541 6.48834C32.8581 6.39475 32.862 6.30117 32.866 6.20758C32.8677 6.16739 32.8689 6.12711 32.8711 6.08694C32.8713 6.08216 32.8715 6.07737 32.8717 6.07255C32.8716 6.07236 32.8716 6.07234 32.8715 6.07214C32.8497 5.98891 32.8517 5.89345 32.8423 5.80867C32.834 5.73456 32.8216 5.65967 32.8204 5.58538C32.8178 5.43577 32.8162 5.28568 32.8179 5.1362C32.8173 5.12725 32.8173 5.11821 32.817 5.10928C32.8156 5.06279 32.8142 5.01631 32.8127 4.96982C32.8099 4.8788 32.8066 4.78777 32.8042 4.69675C32.8003 4.54639 32.8089 4.39578 32.8122 4.24573C32.8125 4.23237 32.8127 4.21898 32.8131 4.20562C32.8135 4.20759 32.8134 4.20831 32.8139 4.21059C32.8134 4.20823 32.8135 4.20561 32.8132 4.2032C32.8132 4.20184 32.8132 4.20046 32.8132 4.1991C32.8136 4.18969 32.8121 4.18401 32.8111 4.18363C32.8101 4.16724 32.8097 4.15067 32.8086 4.1351C32.8049 4.08175 32.8011 4.0284 32.7974 3.97505C32.7786 4.06978 32.7585 4.16432 32.7504 4.26055C32.7313 4.48679 32.72 4.71142 32.6912 4.93636C32.6627 5.15935 32.6417 5.38257 32.6227 5.60693C32.6072 5.79014 32.6173 5.97723 32.5908 6.1589C32.557 6.39011 32.5244 6.62109 32.4955 6.85308C32.4689 7.06678 32.4744 7.28064 32.4584 7.49547C32.4442 7.68588 32.3991 7.87144 32.3972 8.0632C32.3969 8.09504 32.397 8.127 32.3972 8.15903C32.4608 8.3907 32.5237 8.62256 32.5774 8.85603C32.591 8.91511 32.6046 8.97419 32.6182 9.03327ZM32.909 6.99647C32.908 6.98681 32.9085 6.99049 32.909 6.99647ZM31.9193 4.66786C31.9089 4.775 31.9144 4.89901 31.8866 5.00258C31.8864 5.0033 31.8863 5.00336 31.8861 5.00398C31.8867 5.01487 31.8872 5.02587 31.8877 5.03655C31.8905 5.09374 31.8932 5.1509 31.896 5.20809C31.9049 5.39461 31.9152 5.58106 31.9259 5.76757C31.9411 6.03212 31.9963 6.29282 32.0493 6.55378C32.0404 6.3608 32.0324 6.16783 32.0295 5.97496C32.0244 5.63989 31.9992 5.30526 31.9804 4.97013C31.9693 4.77374 31.9833 4.58385 31.9959 4.38835C31.997 4.37189 31.9966 4.35428 31.9991 4.33793C31.9914 4.29468 31.9917 4.24888 31.9881 4.20538C31.982 4.13232 31.9759 4.05927 31.9698 3.98623C31.9497 4.21323 31.9414 4.4426 31.9193 4.66786ZM32.1291 3.17881C32.09 3.33055 32.0407 3.4835 32.0135 3.63801C32.003 3.69752 31.9948 3.75756 31.9875 3.81778C32.0465 3.74958 32.1893 3.76139 32.1989 3.87555C32.2123 4.03618 32.2413 4.20281 32.2371 4.36327C32.2346 4.45936 32.2247 4.55548 32.2186 4.65127C32.2156 4.69712 32.2139 4.7433 32.2097 4.78901C32.2091 4.79477 32.2087 4.79816 32.2083 4.801C32.2086 4.80435 32.209 4.80785 32.2094 4.81383C32.2307 5.13808 32.2586 5.46568 32.2635 5.7898C32.2674 6.04495 32.2788 6.30038 32.2903 6.55582C32.3012 6.48023 32.3123 6.40471 32.3233 6.32933C32.3567 6.10003 32.3703 5.87609 32.3809 5.64355C32.3892 5.46083 32.4058 5.27638 32.429 5.09545C32.4582 4.86663 32.4855 4.64045 32.5008 4.40992C32.5067 4.32108 32.5092 4.23212 32.5243 4.14467C32.5469 4.01422 32.5745 3.88385 32.5922 3.75252C32.6169 3.5688 32.6079 3.3794 32.6267 3.1945C32.6512 2.95299 32.6756 2.71144 32.6997 2.46986C32.7041 2.4264 32.7084 2.38294 32.7127 2.33948C32.7253 2.2139 32.9477 2.21452 32.9496 2.3466C32.9497 2.35649 32.9496 2.36644 32.9497 2.37634C32.9498 2.37634 32.9499 2.37634 32.9499 2.37634C32.9499 2.37706 32.9498 2.37777 32.9497 2.37848C32.9507 2.51358 32.9466 2.64994 32.9559 2.78479C32.9665 2.93728 33.0011 3.08922 33.0141 3.24165C33.0271 3.39419 33.017 3.55006 33.0177 3.70259C33.0178 3.71949 33.0201 3.73806 33.0207 3.74261C33.0204 3.74013 33.0195 3.73425 33.0177 3.72349C33.0227 3.75379 33.0221 3.78588 33.0243 3.81631C33.0312 3.91503 33.0382 4.01375 33.0451 4.11247C33.0555 4.26026 33.0467 4.40781 33.0434 4.55527C33.0426 4.59311 33.0425 4.63106 33.0409 4.66886C33.0408 4.6716 33.0407 4.67251 33.0406 4.67433C33.0407 4.67667 33.0408 4.67805 33.0409 4.68141C33.0445 4.77526 33.0468 4.86911 33.0497 4.96295C33.0541 5.10488 33.0555 5.24641 33.0563 5.38826C33.0567 5.4573 33.0547 5.52693 33.0571 5.59615C33.0583 5.5996 33.0618 5.63392 33.0631 5.64548C33.0683 5.69234 33.0735 5.73919 33.0787 5.78605C33.0952 5.9344 33.1104 6.0739 33.1041 6.2217C33.1 6.31974 33.0958 6.41777 33.0917 6.51581C33.0914 6.52279 33.0915 6.53027 33.0913 6.53767C33.1008 6.56517 33.0987 6.60338 33.102 6.63111C33.1202 6.7799 33.1484 6.93023 33.1462 7.07943C33.1448 7.17645 33.1433 7.27348 33.1418 7.37051C33.1413 7.40591 33.1413 7.44138 33.1402 7.47675C33.1401 7.47985 33.1401 7.481 33.14 7.48286C33.1401 7.48511 33.1401 7.48626 33.1402 7.4893C33.144 7.63887 33.1413 7.78928 33.1508 7.93883C33.1527 7.96869 33.1556 7.99855 33.1584 8.02841C33.1588 8.01101 33.159 7.99357 33.1596 7.97622C33.1646 7.82397 33.1768 7.67216 33.1861 7.52029C33.1866 7.51254 33.1891 7.47805 33.1904 7.46501C33.1905 7.44225 33.1896 7.41934 33.1893 7.39668C33.188 7.29135 33.1867 7.18602 33.1854 7.0807C33.1834 6.92276 33.1905 6.76525 33.1949 6.60764C33.2035 6.30316 33.2383 5.99922 33.2564 5.69532C33.2745 5.39097 33.2891 5.08775 33.3181 4.78455C33.3468 4.48532 33.3397 4.18083 33.3512 3.87972C33.3627 3.5787 33.3986 3.27994 33.4326 2.98148C33.4496 2.83197 33.4626 2.68287 33.4743 2.53265C33.4861 2.38067 33.5071 2.24133 33.5371 2.09227C33.5516 2.02023 33.5661 1.9482 33.5806 1.87617C33.6097 1.73125 33.8226 1.76611 33.8178 1.91303C33.8065 2.25494 33.7819 2.59881 33.7855 2.94144C33.7867 3.06266 33.788 3.18388 33.7893 3.3051C33.7893 3.31157 33.7894 3.31804 33.7895 3.32451C33.7896 3.32659 33.7899 3.32941 33.7902 3.33375C33.794 3.38466 33.7955 3.43574 33.7981 3.48667C33.808 3.6765 33.8156 3.86535 33.8194 4.05513C33.8234 4.25207 33.8221 4.44786 33.819 4.64455C33.8183 4.68581 33.819 4.72746 33.8171 4.76866C33.8204 4.78588 33.8194 4.80514 33.8206 4.82231C33.8288 4.94412 33.8369 5.06594 33.8451 5.18776C33.8568 5.36142 33.862 5.53566 33.8671 5.70933C33.8695 5.78985 33.8648 5.87041 33.8628 5.95073C33.8613 6.01175 33.8597 6.07278 33.8582 6.13381C33.8576 6.15577 33.8573 6.17775 33.8565 6.19971C33.8564 6.20328 33.8566 6.20733 33.857 6.21129C33.8565 6.20833 33.8561 6.20584 33.8554 6.20197C33.884 6.3693 33.8722 6.54571 33.885 6.71454C33.8989 6.89754 33.9148 7.08051 33.9245 7.26359C33.9449 7.64862 33.9712 8.03322 33.9756 8.41811C33.9763 8.47359 33.9769 8.52907 33.9775 8.58454C33.9777 8.59387 33.9778 8.6032 33.9779 8.61252C33.978 8.61468 33.9782 8.61748 33.9785 8.62203C33.9853 8.73811 33.9882 8.85437 33.993 8.97046C33.996 9.04085 34.0014 9.11116 34.0068 9.18148C34.0223 9.05455 34.0436 8.92805 34.0481 8.8004C34.055 8.60219 34.0373 8.40604 34.0588 8.20907C34.1032 7.80353 34.1559 7.39912 34.1866 6.99175C34.2156 6.60662 34.2274 6.22157 34.2829 5.8398C34.3131 5.63186 34.3253 5.42648 34.3368 5.21585C34.3465 5.03758 34.3838 4.86223 34.3935 4.6841C34.4037 4.4957 34.3858 4.30545 34.4005 4.11727C34.4168 3.90717 34.4322 3.69804 34.4406 3.48724C34.449 3.27527 34.4509 3.06403 34.4515 2.85154C34.452 2.65923 34.469 2.46795 34.4794 2.27633C34.4949 1.99176 34.5162 1.70709 34.5304 1.42218C34.445 1.41439 34.3547 1.40842 34.2771 1.38436C34.2756 1.38392 34.2754 1.38369 34.2743 1.38332C34.2634 1.38318 34.2524 1.38301 34.2415 1.38284C34.1761 1.38191 34.1108 1.38096 34.0455 1.38002C33.9858 1.37916 33.9261 1.3783 33.8664 1.37744C33.8573 1.3773 33.8301 1.38128 33.8202 1.37719C33.721 1.41937 33.6066 1.44295 33.5033 1.47506C33.4712 1.48505 33.4309 1.50571 33.3964 1.50861C33.3811 1.5178 33.3654 1.52656 33.3499 1.53551C33.2477 1.59461 33.1472 1.66345 33.0402 1.71455C33.0366 1.71629 33.0282 1.72064 33.0219 1.72361C33.02 1.72557 33.018 1.72763 33.0161 1.72939C32.9777 1.76501 32.9392 1.80063 32.9008 1.83626C32.8354 1.89688 32.7629 1.95451 32.7027 2.02005C32.639 2.0895 32.5866 2.17235 32.5296 2.24706C32.4993 2.2868 32.4703 2.32791 32.4385 2.36654C32.4377 2.36747 32.4373 2.36825 32.4366 2.36914C32.4375 2.36653 32.4384 2.36396 32.4393 2.3606C32.4382 2.36467 32.4359 2.36872 32.4339 2.37277C32.4304 2.37803 32.4288 2.38192 32.4286 2.38378C32.4259 2.38844 32.4232 2.3931 32.421 2.39751C32.37 2.50027 32.319 2.60303 32.268 2.70578C32.2605 2.72091 32.2333 2.78402 32.2368 2.76514C32.2271 2.79938 32.219 2.83424 32.21 2.86859C32.1831 2.97198 32.1558 3.07531 32.1291 3.17881Z" fill="white"/>
</g>
<defs>
<clipPath id="clip0_21_20">
<rect width="29" height="29" fill="white" transform="translate(0 11)"/>
</clipPath>
<clipPath id="clip1_21_20">
<rect width="14.4278" height="12.985" fill="white" transform="matrix(-0.917639 -0.397414 -0.397414 0.917639 46.3999 5.7338)"/>
</clipPath>
</defs>
</svg>
