<svg width="44" height="44" viewBox="0 0 44 44" fill="none" xmlns="http://www.w3.org/2000/svg">
<g clip-path="url(#clip0_21_20)">
<path d="M6.99208 29.975C6.88254 29.975 6.77459 29.9488 6.67721 29.8987L1.43708 27.1989C1.2757 27.1157 1.15376 26.9721 1.09786 26.7994C1.04196 26.6267 1.05664 26.4389 1.13871 26.2769L7.29458 14.1178C7.33545 14.0371 7.39185 13.9652 7.46055 13.9063C7.52926 13.8474 7.60891 13.8027 7.69495 13.7746C7.78098 13.7466 7.87171 13.7358 7.96192 13.7429C8.05213 13.75 8.14005 13.7748 8.22064 13.816L13.2057 16.3597C13.3656 16.4412 13.4873 16.5819 13.5448 16.7518C13.6024 16.9218 13.5912 17.1075 13.5137 17.2693L7.61221 29.5811C7.57244 29.6639 7.51648 29.7378 7.44764 29.7987C7.3788 29.8595 7.29847 29.9059 7.2114 29.9351C7.14103 29.9606 7.0669 29.974 6.99208 29.975ZM2.67389 26.2886L6.6779 28.3511L11.984 17.2824L8.20964 15.3574L2.67389 26.2886Z" fill="white"/>
<path d="M14.1144 20.4071C13.9962 20.407 13.8799 20.3765 13.7769 20.3184L11.779 19.1923C11.6977 19.1494 11.6258 19.0907 11.5676 19.0196C11.5094 18.9485 11.4661 18.8664 11.4401 18.7783C11.4142 18.6901 11.4061 18.5977 11.4165 18.5064C11.4269 18.4151 11.4555 18.3268 11.5006 18.2467C11.5457 18.1667 11.6063 18.0965 11.679 18.0402C11.7517 17.984 11.8349 17.943 11.9238 17.9195C12.0126 17.896 12.1052 17.8905 12.1962 17.9034C12.2872 17.9163 12.3747 17.9473 12.4534 17.9946L14.1034 18.9228C15.0731 18.3322 16.0501 17.7537 17.0343 17.1875C18.4911 16.3625 19.5168 16.4766 20.6945 17.5918C20.7601 17.6538 20.8128 17.7282 20.8497 17.8107C20.8865 17.8931 20.9068 17.982 20.9092 18.0723C20.9117 18.1625 20.8964 18.2524 20.8642 18.3368C20.8319 18.4211 20.7834 18.4983 20.7213 18.5639C20.6592 18.6295 20.5849 18.6822 20.5024 18.719C20.42 18.7559 20.3311 18.7761 20.2408 18.7786C20.1505 18.7811 20.0607 18.7658 19.9763 18.7335C19.892 18.7013 19.8148 18.6528 19.7492 18.5907C19.0198 17.8991 18.6382 17.8606 17.7107 18.3844C16.564 19.0328 14.4953 20.2936 14.474 20.3094C14.3654 20.3745 14.241 20.4082 14.1144 20.4071Z" fill="white"/>
<path d="M32.2006 32.3682C31.6999 32.3813 31.2059 32.251 30.7767 31.9928C30.1436 31.5707 27.3606 28.8413 26.8092 28.2982C26.6894 28.1685 26.624 27.9977 26.6267 27.8211C26.6295 27.6445 26.7 27.4758 26.8237 27.3498C26.9475 27.2239 27.115 27.1504 27.2914 27.1445C27.4679 27.1387 27.6399 27.201 27.7717 27.3185C29.0092 28.5402 31.1322 30.5786 31.5371 30.8488C31.7981 30.9697 32.0869 31.0178 32.373 30.9881C32.6591 30.9583 32.9319 30.8517 33.1624 30.6797C33.2704 30.5861 33.3566 30.4698 33.4148 30.3392C33.4731 30.2086 33.5019 30.0668 33.4993 29.9239C33.4966 29.7809 33.4626 29.6403 33.3997 29.5119C33.3367 29.3835 33.2463 29.2705 33.1349 29.1809C32.4322 28.391 29.5131 25.5812 28.8724 24.9652C26.6366 24.1459 24.4685 23.1526 22.3879 21.9945L21.6646 22.4675C21.502 23.221 21.0692 23.8889 20.4477 24.3451C20.2289 24.5164 19.9754 24.6379 19.7047 24.701C19.4341 24.7642 19.153 24.7675 18.8809 24.7108C18.5511 24.6696 18.2335 24.5601 17.9483 24.3892C17.6632 24.2184 17.4167 23.9901 17.2247 23.7187C16.8592 22.9378 16.8181 22.0439 17.1106 21.2327C17.6971 18.8856 18.6486 18.2806 19.9658 17.4446L20.2546 17.2597C21.7052 16.3281 22.9516 15.8345 24.317 16.4477C25.1667 16.8307 28.1828 17.9987 29.0394 18.3294L31.9104 17.3889C32.0824 17.3366 32.268 17.3538 32.4275 17.4367C32.587 17.5196 32.7077 17.6617 32.7637 17.8325C32.8197 18.0033 32.8066 18.1893 32.7272 18.3505C32.6477 18.5118 32.5083 18.6355 32.3387 18.6952L29.2347 19.7127C29.0843 19.7615 28.9218 19.7574 28.7741 19.701C28.6111 19.6384 24.7762 18.1624 23.7553 17.7024C23.1427 17.4274 22.4958 17.4549 20.9998 18.4167L20.7049 18.6051C19.5031 19.3682 18.9002 19.7519 18.4464 21.5662C18.2141 22.4957 18.3213 22.8724 18.4059 23.0099C18.5145 23.1914 18.7661 23.265 19.1676 23.3647C19.2535 23.3789 19.3416 23.374 19.4254 23.3502C19.5092 23.3264 19.5867 23.2844 19.6523 23.2272C19.8463 23.0811 20.0083 22.8969 20.1283 22.6859C20.2483 22.4748 20.3238 22.2414 20.3501 22C20.3591 21.8963 20.3915 21.7961 20.4448 21.7068C20.4982 21.6175 20.5711 21.5414 20.6581 21.4844L21.9816 20.6195C22.0857 20.5514 22.2064 20.5129 22.3308 20.5081C22.4551 20.5033 22.5785 20.5323 22.6876 20.592C22.7337 20.6174 27.3695 23.1522 29.3997 23.6857C29.5126 23.7156 29.6162 23.7735 29.7008 23.8542C29.8493 23.9965 33.3446 27.3439 34.1654 28.2693C34.3928 28.4895 34.5731 28.7536 34.6954 29.0456C34.8177 29.3376 34.8794 29.6514 34.8767 29.968C34.8741 30.2845 34.8072 30.5972 34.6801 30.8872C34.553 31.1771 34.3683 31.4382 34.1372 31.6546C33.6085 32.1343 32.9142 32.3901 32.2006 32.3682Z" fill="white"/>
<path d="M33.651 29.4119C33.4932 29.4122 33.3401 29.3581 33.2174 29.2588C33.0947 29.1596 33.0099 29.0211 32.9773 28.8667C32.9446 28.7123 32.9661 28.5514 33.0381 28.4109C33.11 28.2705 33.2281 28.1591 33.3725 28.0954L35.7843 27.027C35.8668 26.9904 35.9558 26.9705 36.0461 26.9683C36.1363 26.9661 36.2262 26.9817 36.3104 27.0143C36.3946 27.0468 36.4716 27.0956 36.537 27.1579C36.6024 27.2202 36.6549 27.2947 36.6914 27.3773C36.728 27.4599 36.7479 27.5488 36.7501 27.6391C36.7523 27.7294 36.7367 27.8192 36.7042 27.9034C36.6716 27.9876 36.6228 28.0647 36.5606 28.13C36.4983 28.1954 36.4237 28.2479 36.3412 28.2844L33.9287 29.3563C33.841 29.3939 33.7464 29.4129 33.651 29.4119Z" fill="white"/>
<path d="M36.8045 29.975C36.6675 29.9749 36.5336 29.9339 36.42 29.8573C36.3065 29.7806 36.2184 29.6717 36.1672 29.5446L30.9779 16.6698C30.9432 16.584 30.9263 16.492 30.928 16.3994C30.9297 16.3068 30.9502 16.2155 30.988 16.1311C31.0259 16.0466 31.0805 15.9706 31.1484 15.9077C31.2164 15.8448 31.2964 15.7963 31.3835 15.7651L36.9289 13.7809C37.0966 13.7209 37.281 13.7283 37.4434 13.8015C37.6057 13.8747 37.7333 14.0081 37.7993 14.1735L42.8868 26.9431C42.9201 27.0276 42.9363 27.1177 42.9346 27.2085C42.9328 27.2992 42.9132 27.3887 42.8767 27.4718C42.8402 27.5549 42.7876 27.6299 42.722 27.6926C42.6563 27.7552 42.5789 27.8043 42.4942 27.8369L37.0506 29.9228C36.9726 29.9554 36.8891 29.9732 36.8045 29.975ZM32.5186 16.8183L37.1874 28.3999L41.3495 26.8049L36.7674 15.2989L32.5186 16.8183ZM29.1031 34.4541C28.5364 34.4707 27.9831 34.2803 27.5466 33.9185C26.626 33.1004 24.2597 30.7354 24.1593 30.635C24.0341 30.5053 23.9648 30.3317 23.9663 30.1514C23.9679 29.9712 24.0402 29.7987 24.1677 29.6713C24.2951 29.5438 24.4676 29.4715 24.6478 29.4699C24.8281 29.4684 25.0018 29.5376 25.1314 29.6629C25.1562 29.6869 27.57 32.0994 28.4596 32.8941C28.6439 33.0069 28.8527 33.0732 29.0682 33.0876C29.2837 33.102 29.4995 33.0639 29.6971 32.9766C30.02 32.8666 30.3065 32.67 30.5252 32.4083C30.7439 32.1465 30.8865 31.8296 30.9374 31.4923C30.9695 31.3138 31.0709 31.1552 31.2195 31.051C31.368 30.9469 31.5517 30.9058 31.7305 30.9365C31.9093 30.9673 32.0687 31.0674 32.174 31.2152C32.2792 31.363 32.3218 31.5464 32.2924 31.7254C32.1992 32.303 31.9511 32.8446 31.5746 33.2925C31.1981 33.7404 30.7073 34.0779 30.1543 34.2691C29.8167 34.3892 29.4614 34.4517 29.1031 34.4541Z" fill="white"/>
<path d="M25.9036 36.1205C25.3381 36.1447 24.7854 35.9474 24.363 35.5705L21.921 33.1285C21.7919 32.9995 21.7193 32.8245 21.7192 32.642C21.7192 32.4595 21.7916 32.2845 21.9206 32.1554C22.0496 32.0263 22.2246 31.9537 22.4071 31.9537C22.5896 31.9536 22.7647 32.026 22.8938 32.155L25.3358 34.5977C25.4868 34.6824 25.654 34.7344 25.8264 34.7504C25.9988 34.7664 26.1727 34.746 26.3368 34.6905C26.6523 34.6134 26.9413 34.4527 27.1734 34.2254C27.4056 33.9981 27.5723 33.7126 27.6561 33.3987C27.6826 33.3124 27.7258 33.2322 27.7833 33.1626C27.8408 33.093 27.9115 33.0354 27.9913 32.9931C28.071 32.9508 28.1584 32.9246 28.2482 32.9161C28.3381 32.9075 28.4288 32.9168 28.5151 32.9433C28.6014 32.9698 28.6817 33.013 28.7513 33.0705C28.8209 33.128 28.8785 33.1987 28.9208 33.2785C28.9631 33.3582 28.9892 33.4455 28.9978 33.5354C29.0063 33.6253 28.9971 33.716 28.9706 33.8023C28.7791 34.4684 28.3767 35.0545 27.8239 35.4725C27.271 35.8905 26.5968 36.1179 25.9036 36.1205Z" fill="white"/>
<path d="M23.2827 37.9555C22.7211 37.968 22.1718 37.7907 21.7235 37.4523C20.7094 36.641 19.8569 35.9748 19.8562 35.9735C19.7819 35.9191 19.7192 35.8503 19.672 35.7712C19.6247 35.6921 19.5939 35.6043 19.5812 35.5131C19.5686 35.4219 19.5744 35.329 19.5983 35.24C19.6222 35.1511 19.6638 35.0678 19.7205 34.9953C19.7773 34.9227 19.848 34.8623 19.9285 34.8175C20.0091 34.7728 20.0978 34.7448 20.1894 34.735C20.281 34.7252 20.3736 34.734 20.4617 34.7607C20.5499 34.7875 20.6318 34.8316 20.7025 34.8906C20.7025 34.8906 21.5612 35.5616 22.5821 36.3784C22.7998 36.5074 23.0472 36.5779 23.3002 36.583C23.5532 36.588 23.8032 36.5275 24.0259 36.4073C24.225 36.322 24.3935 36.1782 24.5092 35.9951C24.6248 35.8119 24.6821 35.598 24.6735 35.3815C24.668 35.1992 24.7351 35.0221 24.8601 34.8892C24.9851 34.7564 25.1577 34.6786 25.3401 34.673C25.5224 34.6675 25.6995 34.7346 25.8323 34.8596C25.9652 34.9846 26.043 35.1572 26.0485 35.3396C26.0646 35.8185 25.9398 36.2915 25.6895 36.7001C25.4392 37.1087 25.0745 37.4347 24.6405 37.6379C24.2184 37.8469 23.7537 37.9556 23.2827 37.9555Z" fill="white"/>
<path d="M18.1308 37.6379C17.9073 37.6374 17.6861 37.593 17.4797 37.5072C16.9191 37.2322 16.4569 36.7909 16.1563 36.2436C15.6683 36.3375 15.163 36.2616 14.7242 36.0284C14.3564 35.7874 14.0402 35.4757 13.794 35.1113C13.5478 34.747 13.3765 34.3373 13.2901 33.9061C13.2538 33.7305 13.2876 33.5477 13.3843 33.3967C13.9432 32.5249 14.7861 31.1699 14.9119 30.8866C15.0254 30.6615 15.186 30.4636 15.383 30.3062C15.58 30.1489 15.8085 30.0359 16.0531 29.975C16.3861 29.8877 16.7344 29.876 17.0724 29.9407C17.4105 30.0054 17.7298 30.1449 18.007 30.349C18.3142 30.5526 18.5608 30.8351 18.721 31.167C18.8811 31.4988 18.9489 31.8677 18.9173 32.2348C19.2443 32.2485 19.5646 32.3324 19.8565 32.4808C20.1483 32.6292 20.4047 32.8386 20.6085 33.0949C20.8067 33.4044 20.9331 33.7543 20.9787 34.119C21.0242 34.4837 20.9877 34.854 20.8718 35.2027C20.5119 36.2094 19.7713 37.0347 18.8093 37.501C18.5947 37.5919 18.3638 37.6384 18.1308 37.6379ZM17.314 35.4922C17.5299 35.8572 17.9156 36.3811 18.2765 36.2305C18.8758 35.9188 19.3372 35.3947 19.5704 34.7607C19.6163 34.6203 19.6338 34.4723 19.622 34.3251C19.6102 34.1779 19.5693 34.0346 19.5016 33.9034C19.3971 33.8008 19.273 33.7204 19.1367 33.667C19.0003 33.6136 18.8546 33.5883 18.7083 33.5926L17.314 35.4922ZM14.7077 33.8772C14.8166 34.2593 15.0538 34.5922 15.3794 34.8198C15.481 34.8717 15.5921 34.9023 15.7059 34.9098C15.8198 34.9172 15.934 34.9013 16.0414 34.8631L17.5093 32.3469C17.5675 32.1912 17.5712 32.0205 17.5198 31.8625C17.4683 31.7045 17.3647 31.5686 17.226 31.4772C17.1204 31.3941 16.9985 31.334 16.8683 31.3008C16.738 31.2677 16.6023 31.2622 16.4698 31.2847C16.3529 31.3041 16.2462 31.3628 16.1673 31.451C15.9858 31.8539 15.1126 33.2406 14.7077 33.8772Z" fill="white"/>
<path d="M12.8761 34.9511C12.7132 34.9516 12.5511 34.9284 12.3948 34.8824C11.2151 34.5262 10.7538 33 10.705 32.8281C10.6803 32.7406 10.6732 32.649 10.6842 32.5587C10.6952 32.4685 10.724 32.3813 10.7689 32.3022C11.3532 31.2871 11.9996 30.309 12.7042 29.3734C13.058 28.9134 13.5706 28.6017 14.1419 28.4992C14.7132 28.3967 15.3022 28.5109 15.7938 28.8193C16.4428 29.2689 16.9186 30.2486 16.1225 31.5287C16.0748 31.6055 16.0126 31.6721 15.9392 31.7248C15.8658 31.7774 15.7828 31.8152 15.6949 31.8357C15.6069 31.8563 15.5158 31.8594 15.4267 31.8448C15.3375 31.8301 15.2522 31.7981 15.1754 31.7505C15.0987 31.7028 15.0321 31.6406 14.9794 31.5672C14.9267 31.4938 14.889 31.4108 14.8684 31.3229C14.8478 31.2349 14.8448 31.1438 14.8594 31.0547C14.874 30.9655 14.9061 30.8802 14.9537 30.8034C15.1304 30.5188 15.2837 30.1393 15.0094 29.9496C14.8089 29.8399 14.5756 29.8061 14.3522 29.8542C14.1288 29.9022 13.9302 30.0291 13.7925 30.2115C13.189 31.0142 12.6303 31.8496 12.1191 32.714C12.2697 33.0742 12.5261 33.4861 12.7881 33.5637C13.0198 33.6325 13.3381 33.3946 13.5106 33.2475C13.6486 33.1283 13.8282 33.0687 14.0101 33.0819C14.192 33.0951 14.3611 33.18 14.4804 33.318C14.5996 33.4559 14.6592 33.6356 14.646 33.8174C14.6327 33.9993 14.5478 34.1684 14.4099 34.2877C13.9974 34.6896 13.4514 34.9257 12.8761 34.9511Z" fill="white"/>
<path d="M11.3672 33.3293C11.2916 33.3292 11.2166 33.3167 11.1451 33.2922C11.029 33.2523 8.28857 32.2953 8.28857 30.1489C8.28851 30.0766 8.29964 30.0047 8.32157 29.9358C8.5702 29.2512 8.9109 28.6035 9.33426 28.0108C9.64893 27.634 10.084 27.3774 10.5661 27.2843C11.0481 27.1913 11.5474 27.2674 11.9798 27.5C12.3869 27.6803 12.7116 28.0067 12.8898 28.4148C13.068 28.8229 13.0867 29.2829 12.9423 29.7041C12.4926 31.1527 12.0313 32.8075 12.0265 32.824C11.9863 32.9687 11.8998 33.0962 11.7802 33.1871C11.6606 33.278 11.5146 33.3272 11.3645 33.3273L11.3672 33.3293ZM9.66907 30.2548C9.73782 30.8736 10.3703 31.3748 10.9238 31.6848C11.1025 31.0585 11.3693 30.1448 11.6312 29.2985C11.655 29.245 11.6671 29.1871 11.6667 29.1286C11.6664 29.0701 11.6536 29.0123 11.6292 28.9591C11.6048 28.9059 11.5694 28.8586 11.5253 28.8201C11.4812 28.7817 11.4294 28.753 11.3734 28.7361C11.2315 28.6552 11.0686 28.6185 10.9057 28.6308C10.7428 28.643 10.5872 28.7037 10.459 28.8049C10.1402 29.2558 9.87512 29.7424 9.66907 30.2548Z" fill="white"/>
<path d="M9.54065 29.6498C9.40227 29.6501 9.26706 29.6084 9.1529 29.5302L7.34959 28.2927C7.27506 28.2417 7.21131 28.1765 7.16197 28.1008C7.11264 28.0252 7.07868 27.9406 7.06205 27.8518C7.04542 27.763 7.04644 27.6718 7.06505 27.5835C7.08365 27.4951 7.11948 27.4112 7.17049 27.3367C7.2215 27.2622 7.28669 27.1984 7.36234 27.1491C7.43799 27.0998 7.52262 27.0658 7.61139 27.0492C7.70016 27.0326 7.79133 27.0336 7.87971 27.0522C7.96809 27.0708 8.05193 27.1066 8.12646 27.1576L9.92978 28.3951C10.0509 28.4781 10.1423 28.5977 10.1906 28.7365C10.2388 28.8752 10.2414 29.0257 10.1979 29.166C10.1544 29.3062 10.0671 29.4289 9.94883 29.516C9.83056 29.603 9.68752 29.6499 9.54065 29.6498ZM22.0002 11.4201C21.8179 11.4201 21.643 11.3476 21.5141 11.2187C21.3851 11.0898 21.3127 10.9149 21.3127 10.7326V6.73062C21.3127 6.54828 21.3851 6.37342 21.5141 6.24449C21.643 6.11555 21.8179 6.04312 22.0002 6.04312C22.1825 6.04312 22.3574 6.11555 22.4863 6.24449C22.6153 6.37342 22.6877 6.54828 22.6877 6.73062V10.7326C22.6877 10.9149 22.6153 11.0898 22.4863 11.2187C22.3574 11.3476 22.1825 11.4201 22.0002 11.4201ZM16.2974 13.4392C16.1376 13.4393 15.9827 13.3836 15.8595 13.2818L12.7733 10.7332C12.7015 10.6765 12.6419 10.606 12.5977 10.5258C12.5536 10.4457 12.5259 10.3576 12.5162 10.2666C12.5066 10.1756 12.5152 10.0837 12.5416 9.99606C12.5679 9.90846 12.6115 9.827 12.6697 9.75646C12.728 9.68591 12.7997 9.6277 12.8807 9.58523C12.9618 9.54276 13.0504 9.51688 13.1416 9.50912C13.2327 9.50136 13.3245 9.51187 13.4116 9.54003C13.4986 9.56819 13.5791 9.61344 13.6485 9.67312L16.7353 12.2217C16.8445 12.3118 16.9231 12.4335 16.9606 12.57C16.998 12.7065 16.9923 12.8512 16.9444 12.9844C16.8965 13.1176 16.8087 13.2328 16.6929 13.3142C16.5771 13.3956 16.439 13.4393 16.2974 13.4392ZM27.7065 13.4392C27.5649 13.4393 27.4268 13.3956 27.311 13.3142C27.1952 13.2328 27.1073 13.1176 27.0594 12.9844C27.0115 12.8512 27.0059 12.7065 27.0433 12.57C27.0807 12.4335 27.1594 12.3118 27.2685 12.2217L30.3554 9.67312C30.4247 9.61344 30.5053 9.56819 30.5923 9.54003C30.6793 9.51187 30.7711 9.50136 30.8623 9.50912C30.9534 9.51688 31.0421 9.54276 31.1231 9.58523C31.2042 9.6277 31.2759 9.68591 31.3341 9.75646C31.3924 9.827 31.4359 9.90846 31.4623 9.99606C31.4886 10.0837 31.4973 10.1756 31.4876 10.2666C31.478 10.3576 31.4503 10.4457 31.4061 10.5258C31.362 10.606 31.3023 10.6765 31.2306 10.7332L28.1444 13.2818C28.0212 13.3836 27.8663 13.4393 27.7065 13.4392Z" fill="white"/>
</g>
<defs>
<clipPath id="clip0_21_20">
<rect width="44" height="44" fill="white"/>
</clipPath>
</defs>
</svg>
